<svg width="2609" height="751" viewBox="0 0 2609 751" fill="none" xmlns="http://www.w3.org/2000/svg">
<path d="M79.7165 399.085C82.4796 396.324 86.9595 396.324 89.7226 399.085C92.4857 401.845 92.4857 406.321 89.7226 409.082L13.0092 485.727C10.2461 488.488 5.7662 488.488 3.0031 485.727C0.239988 482.966 0.239989 478.49 3.0031 475.73L79.7165 399.085Z" fill="black"/>
<path d="M3.00299 409.082C0.239881 406.321 0.239882 401.845 3.00299 399.085C5.7661 396.324 10.246 396.324 13.0091 399.085L89.7225 475.73C92.4856 478.49 92.4856 482.966 89.7225 485.727C86.9594 488.488 82.4795 488.488 79.7164 485.727L3.00299 409.082Z" fill="black"/>
<path d="M1120.54 491.641C1123.3 488.88 1127.78 488.88 1130.55 491.641C1133.31 494.401 1133.31 498.877 1130.55 501.638L1053.83 578.283C1051.07 581.044 1046.59 581.044 1043.83 578.283C1041.06 575.523 1041.06 571.047 1043.83 568.286L1120.54 491.641Z" fill="black"/>
<path d="M1043.83 501.638C1041.06 498.877 1041.06 494.401 1043.83 491.641C1046.59 488.88 1051.07 488.88 1053.83 491.641L1130.55 568.286C1133.31 571.047 1133.31 575.523 1130.55 578.283C1127.78 581.044 1123.3 581.044 1120.54 578.283L1043.83 501.638Z" fill="black"/>
<path d="M1169.58 491.641C1172.35 488.88 1176.83 488.88 1179.59 491.641C1182.35 494.401 1182.35 498.877 1179.59 501.638L1102.88 578.283C1100.11 581.044 1095.63 581.044 1092.87 578.283C1090.11 575.523 1090.11 571.047 1092.87 568.286L1169.58 491.641Z" fill="black"/>
<path d="M1092.87 501.638C1090.11 498.877 1090.11 494.401 1092.87 491.641C1095.63 488.88 1100.11 488.88 1102.88 491.641L1179.59 568.286C1182.35 571.047 1182.35 575.523 1179.59 578.283C1176.83 581.044 1172.35 581.044 1169.58 578.283L1092.87 501.638Z" fill="black"/>
<path d="M1219.99 491.641C1222.75 488.88 1227.23 488.88 1230 491.641C1232.76 494.401 1232.76 498.877 1230 501.638L1153.28 578.283C1150.52 581.044 1146.04 581.044 1143.28 578.283C1140.51 575.523 1140.51 571.047 1143.28 568.286L1219.99 491.641Z" fill="black"/>
<path d="M1143.28 501.638C1140.51 498.877 1140.51 494.401 1143.28 491.641C1146.04 488.88 1150.52 488.88 1153.28 491.641L1230 568.286C1232.76 571.047 1232.76 575.523 1230 578.283C1227.23 581.044 1222.75 581.044 1219.99 578.283L1143.28 501.638Z" fill="black"/>
<path d="M1270.4 491.641C1273.16 488.88 1277.64 488.88 1280.4 491.641C1283.17 494.401 1283.17 498.877 1280.4 501.638L1203.69 578.283C1200.93 581.044 1196.45 581.044 1193.68 578.283C1190.92 575.523 1190.92 571.047 1193.68 568.286L1270.4 491.641Z" fill="black"/>
<path d="M1193.68 501.638C1190.92 498.877 1190.92 494.401 1193.68 491.641C1196.45 488.88 1200.93 488.88 1203.69 491.641L1280.4 568.286C1283.17 571.047 1283.17 575.523 1280.4 578.283C1277.64 581.044 1273.16 581.044 1270.4 578.283L1193.68 501.638Z" fill="black"/>
<path d="M79.7165 448.085C82.4796 445.324 86.9595 445.324 89.7226 448.085C92.4857 450.846 92.4857 455.322 89.7226 458.082L13.0092 534.727C10.2461 537.488 5.7662 537.488 3.00309 534.727C0.239985 531.967 0.239987 527.491 3.00309 524.73L79.7165 448.085Z" fill="black"/>
<path d="M3.00299 458.082C0.239881 455.322 0.239883 450.846 3.00299 448.085C5.7661 445.324 10.246 445.324 13.0091 448.085L89.7225 524.73C92.4856 527.491 92.4856 531.967 89.7225 534.727C86.9594 537.488 82.4795 537.488 79.7164 534.727L3.00299 458.082Z" fill="black"/>
<path d="M79.7165 495.724C82.4796 492.964 86.9595 492.964 89.7226 495.724C92.4857 498.485 92.4857 502.961 89.7226 505.721L13.0092 582.367C10.2461 585.127 5.7662 585.127 3.0031 582.367C0.239989 579.606 0.23999 575.13 3.0031 572.369L79.7165 495.724Z" fill="black"/>
<path d="M3.00299 505.721C0.239881 502.961 0.239882 498.485 3.00299 495.724C5.7661 492.964 10.246 492.964 13.0091 495.724L89.7225 572.369C92.4856 575.13 92.4856 579.606 89.7225 582.367C86.9594 585.127 82.4795 585.127 79.7164 582.367L3.00299 505.721Z" fill="black"/>
<path d="M324.937 60.1655C327.7 57.4049 332.18 57.4049 334.943 60.1655C337.706 62.9262 337.706 67.4021 334.943 70.1627L258.229 146.808C255.466 149.569 250.986 149.569 248.223 146.808C245.46 144.047 245.46 139.571 248.223 136.811L324.937 60.1655Z" fill="black"/>
<path d="M248.223 70.1627C245.46 67.4021 245.46 62.9262 248.223 60.1655C250.986 57.4049 255.466 57.4049 258.229 60.1655L334.943 136.811C337.706 139.571 337.706 144.047 334.943 146.808C332.179 149.569 327.7 149.569 324.936 146.808L248.223 70.1627Z" fill="black"/>
<path d="M324.937 109.166C327.7 106.405 332.18 106.405 334.943 109.166C337.706 111.927 337.706 116.402 334.943 119.163L258.229 195.808C255.466 198.569 250.986 198.569 248.223 195.808C245.46 193.048 245.46 188.572 248.223 185.811L324.937 109.166Z" fill="black"/>
<path d="M248.223 119.163C245.46 116.402 245.46 111.927 248.223 109.166C250.986 106.405 255.466 106.405 258.229 109.166L334.943 185.811C337.706 188.572 337.706 193.048 334.943 195.808C332.179 198.569 327.7 198.569 324.936 195.808L248.223 119.163Z" fill="black"/>
<path d="M324.937 156.805C327.7 154.044 332.18 154.044 334.943 156.805C337.706 159.566 337.706 164.042 334.943 166.802L258.229 243.447C255.466 246.208 250.986 246.208 248.223 243.447C245.46 240.687 245.46 236.211 248.223 233.45L324.937 156.805Z" fill="black"/>
<path d="M248.223 166.802C245.46 164.042 245.46 159.566 248.223 156.805C250.986 154.044 255.466 154.044 258.229 156.805L334.943 233.45C337.706 236.211 337.706 240.687 334.943 243.447C332.179 246.208 327.7 246.208 324.936 243.447L248.223 166.802Z" fill="black"/>
<path d="M324.937 205.805C327.7 203.045 332.18 203.045 334.943 205.805C337.706 208.566 337.706 213.042 334.943 215.803L258.229 292.448C255.466 295.208 250.986 295.208 248.223 292.448C245.46 289.687 245.46 285.211 248.223 282.451L324.937 205.805Z" fill="black"/>
<path d="M248.223 215.803C245.46 213.042 245.46 208.566 248.223 205.805C250.986 203.045 255.466 203.045 258.229 205.805L334.943 282.451C337.706 285.211 337.706 289.687 334.943 292.448C332.179 295.208 327.7 295.208 324.936 292.448L248.223 215.803Z" fill="black"/>
<path d="M324.937 254.806C327.7 252.045 332.18 252.045 334.943 254.806C337.706 257.566 337.706 262.042 334.943 264.803L258.229 341.448C255.466 344.209 250.986 344.209 248.223 341.448C245.46 338.688 245.46 334.212 248.223 331.451L324.937 254.806Z" fill="black"/>
<path d="M248.223 264.803C245.46 262.042 245.46 257.566 248.223 254.806C250.986 252.045 255.466 252.045 258.229 254.806L334.943 331.451C337.706 334.212 337.706 338.688 334.943 341.448C332.179 344.209 327.7 344.209 324.936 341.448L248.223 264.803Z" fill="black"/>
<path d="M1071.5 493.002C1074.26 490.241 1078.74 490.241 1081.5 493.002C1084.26 495.763 1084.26 500.238 1081.5 502.999L1004.79 579.644C1002.02 582.405 997.545 582.405 994.782 579.644C992.019 576.884 992.019 572.408 994.782 569.647L1071.5 493.002Z" fill="black"/>
<path d="M994.782 502.999C992.019 500.238 992.019 495.763 994.782 493.002C997.545 490.241 1002.02 490.241 1004.79 493.002L1081.5 569.647C1084.26 572.408 1084.26 576.884 1081.5 579.644C1078.74 582.405 1074.26 582.405 1071.5 579.644L994.782 502.999Z" fill="black"/>
<path d="M128.76 12.5263C131.524 9.76567 136.003 9.76567 138.767 12.5263C141.53 15.287 141.53 19.7629 138.767 22.5235L62.0532 99.1687C59.2901 101.929 54.8102 101.929 52.0471 99.1687C49.284 96.408 49.284 91.9321 52.0471 89.1715L128.76 12.5263Z" fill="black"/>
<path d="M52.047 22.5235C49.2839 19.7629 49.2839 15.287 52.047 12.5263C54.8101 9.76566 59.29 9.76567 62.0531 12.5263L138.766 89.1715C141.53 91.9321 141.53 96.408 138.766 99.1687C136.003 101.929 131.524 101.929 128.76 99.1687L52.047 22.5235Z" fill="black"/>
<path d="M177.805 12.5263C180.568 9.76567 185.048 9.76567 187.811 12.5263C190.574 15.287 190.574 19.7629 187.811 22.5235L111.097 99.1687C108.334 101.929 103.854 101.929 101.091 99.1687C98.328 96.408 98.328 91.9321 101.091 89.1715L177.805 12.5263Z" fill="black"/>
<path d="M101.091 22.5235C98.3279 19.7629 98.3279 15.287 101.091 12.5263C103.854 9.76566 108.334 9.76567 111.097 12.5263L187.811 89.1715C190.574 91.9321 190.574 96.408 187.811 99.1687C185.047 101.929 180.568 101.929 177.804 99.1687L101.091 22.5235Z" fill="black"/>
<path d="M228.211 12.5263C230.974 9.76567 235.454 9.76567 238.217 12.5263C240.98 15.287 240.98 19.7629 238.217 22.5235L161.504 99.1687C158.74 101.929 154.261 101.929 151.497 99.1687C148.734 96.408 148.734 91.9321 151.497 89.1715L228.211 12.5263Z" fill="black"/>
<path d="M151.497 22.5235C148.734 19.7629 148.734 15.287 151.497 12.5263C154.26 9.76566 158.74 9.76567 161.503 12.5263L238.217 89.1715C240.98 91.9321 240.98 96.408 238.217 99.1687C235.454 101.929 230.974 101.929 228.211 99.1687L151.497 22.5235Z" fill="black"/>
<path d="M277.255 12.5263C280.018 9.76567 284.498 9.76567 287.261 12.5263C290.024 15.287 290.024 19.7629 287.261 22.5235L210.548 99.1687C207.784 101.929 203.305 101.929 200.541 99.1687C197.778 96.408 197.778 91.9321 200.541 89.1715L277.255 12.5263Z" fill="black"/>
<path d="M200.541 22.5235C197.778 19.7629 197.778 15.287 200.541 12.5263C203.304 9.76566 207.784 9.76567 210.547 12.5263L287.261 89.1715C290.024 91.9321 290.024 96.408 287.261 99.1687C284.498 101.929 280.018 101.929 277.255 99.1687L200.541 22.5235Z" fill="black"/>
<path d="M324.937 12.5263C327.7 9.76567 332.18 9.76567 334.943 12.5263C337.706 15.287 337.706 19.7629 334.943 22.5235L258.229 99.1687C255.466 101.929 250.986 101.929 248.223 99.1687C245.46 96.408 245.46 91.9321 248.223 89.1715L324.937 12.5263Z" fill="black"/>
<path d="M248.223 22.5235C245.46 19.7629 245.46 15.287 248.223 12.5263C250.986 9.76567 255.466 9.76567 258.229 12.5263L334.943 89.1715C337.706 91.9321 337.706 96.408 334.943 99.1687C332.179 101.929 327.7 101.929 324.936 99.1687L248.223 22.5235Z" fill="black"/>
<path d="M79.7165 13.8874C82.4796 11.1268 86.9595 11.1268 89.7226 13.8874C92.4857 16.6481 92.4857 21.124 89.7226 23.8846L13.0092 100.53C10.2461 103.29 5.76621 103.29 3.0031 100.53C0.239991 97.7692 0.239992 93.2933 3.0031 90.5326L79.7165 13.8874Z" fill="black"/>
<path d="M3.00299 23.8846C0.239881 21.124 0.239882 16.6481 3.00299 13.8874C5.7661 11.1268 10.246 11.1268 13.0091 13.8874L89.7225 90.5326C92.4856 93.2933 92.4856 97.7692 89.7225 100.53C86.9594 103.29 82.4795 103.29 79.7164 100.53L3.00299 23.8846Z" fill="black"/>
<path d="M127.398 254.806C130.161 252.045 134.641 252.045 137.404 254.806C140.167 257.566 140.167 262.042 137.404 264.803L60.6909 341.448C57.9278 344.209 53.4479 344.209 50.6848 341.448C47.9217 338.688 47.9217 334.212 50.6848 331.451L127.398 254.806Z" fill="black"/>
<path d="M50.6847 264.803C47.9216 262.042 47.9216 257.566 50.6847 254.806C53.4478 252.045 57.9277 252.045 60.6908 254.806L137.404 331.451C140.167 334.212 140.167 338.688 137.404 341.448C134.641 344.209 130.161 344.209 127.398 341.448L50.6847 264.803Z" fill="black"/>
<path d="M177.805 256.167C180.568 253.406 185.048 253.406 187.811 256.167C190.574 258.928 190.574 263.403 187.811 266.164L111.097 342.809C108.334 345.57 103.854 345.57 101.091 342.809C98.328 340.049 98.328 335.573 101.091 332.812L177.805 256.167Z" fill="black"/>
<path d="M101.091 266.164C98.3279 263.403 98.3279 258.928 101.091 256.167C103.854 253.406 108.334 253.406 111.097 256.167L187.811 332.812C190.574 335.573 190.574 340.049 187.811 342.809C185.047 345.57 180.568 345.57 177.804 342.809L101.091 266.164Z" fill="black"/>
<path d="M226.849 256.167C229.612 253.406 234.092 253.406 236.855 256.167C239.618 258.928 239.618 263.403 236.855 266.164L160.141 342.809C157.378 345.57 152.898 345.57 150.135 342.809C147.372 340.049 147.372 335.573 150.135 332.812L226.849 256.167Z" fill="black"/>
<path d="M150.135 266.164C147.372 263.403 147.372 258.928 150.135 256.167C152.898 253.406 157.378 253.406 160.141 256.167L236.855 332.812C239.618 335.573 239.618 340.049 236.855 342.809C234.091 345.57 229.612 345.57 226.848 342.809L150.135 266.164Z" fill="black"/>
<path d="M274.53 256.167C277.293 253.406 281.773 253.406 284.536 256.167C287.299 258.928 287.299 263.403 284.536 266.164L207.823 342.809C205.06 345.57 200.58 345.57 197.817 342.809C195.054 340.049 195.054 335.573 197.817 332.812L274.53 256.167Z" fill="black"/>
<path d="M197.817 266.164C195.054 263.403 195.054 258.928 197.817 256.167C200.58 253.406 205.06 253.406 207.823 256.167L284.536 332.812C287.299 335.573 287.299 340.049 284.536 342.809C281.773 345.57 277.293 345.57 274.53 342.809L197.817 266.164Z" fill="black"/>
<path d="M79.7165 61.5267C82.4796 58.766 86.9595 58.766 89.7226 61.5267C92.4857 64.2873 92.4857 68.7632 89.7226 71.5239L13.0092 148.169C10.2461 150.93 5.7662 150.93 3.00309 148.169C0.239984 145.408 0.239985 140.932 3.00309 138.172L79.7165 61.5267Z" fill="black"/>
<path d="M3.00299 71.5238C0.239881 68.7632 0.239882 64.2873 3.00299 61.5267C5.7661 58.766 10.246 58.766 13.0091 61.5267L89.7225 138.172C92.4856 140.932 92.4856 145.408 89.7225 148.169C86.9594 150.93 82.4795 150.93 79.7164 148.169L3.00299 71.5238Z" fill="black"/>
<path d="M79.7165 109.166C82.4796 106.405 86.9595 106.405 89.7226 109.166C92.4857 111.927 92.4857 116.402 89.7226 119.163L13.0092 195.808C10.2461 198.569 5.76621 198.569 3.0031 195.808C0.239991 193.048 0.239992 188.572 3.0031 185.811L79.7165 109.166Z" fill="black"/>
<path d="M3.00299 119.163C0.239881 116.402 0.239882 111.927 3.00299 109.166C5.7661 106.405 10.246 106.405 13.0091 109.166L89.7225 185.811C92.4856 188.572 92.4856 193.048 89.7225 195.808C86.9594 198.569 82.4795 198.569 79.7164 195.808L3.00299 119.163Z" fill="black"/>
<path d="M79.7165 158.166C82.4796 155.406 86.9595 155.406 89.7226 158.166C92.4857 160.927 92.4857 165.403 89.7226 168.163L13.0092 244.809C10.2461 247.569 5.76621 247.569 3.0031 244.809C0.239991 242.048 0.239992 237.572 3.0031 234.811L79.7165 158.166Z" fill="black"/>
<path d="M3.00299 168.163C0.239881 165.403 0.239882 160.927 3.00299 158.166C5.7661 155.406 10.246 155.406 13.0091 158.166L89.7225 234.811C92.4856 237.572 92.4856 242.048 89.7225 244.809C86.9594 247.569 82.4795 247.569 79.7164 244.809L3.00299 168.163Z" fill="black"/>
<path d="M79.7165 207.167C82.4796 204.406 86.9595 204.406 89.7226 207.167C92.4857 209.927 92.4857 214.403 89.7226 217.164L13.0092 293.809C10.2461 296.57 5.76621 296.57 3.0031 293.809C0.239991 291.048 0.239992 286.572 3.0031 283.812L79.7165 207.167Z" fill="black"/>
<path d="M3.00299 217.164C0.239881 214.403 0.239882 209.927 3.00299 207.167C5.7661 204.406 10.246 204.406 13.0091 207.167L89.7225 283.812C92.4856 286.572 92.4856 291.048 89.7225 293.809C86.9594 296.57 82.4795 296.57 79.7164 293.809L3.00299 217.164Z" fill="black"/>
<path d="M79.7165 254.806C82.4796 252.045 86.9595 252.045 89.7226 254.806C92.4857 257.566 92.4857 262.042 89.7226 264.803L13.0092 341.448C10.2461 344.209 5.76621 344.209 3.0031 341.448C0.239991 338.688 0.239992 334.212 3.0031 331.451L79.7165 254.806Z" fill="black"/>
<path d="M3.00299 264.803C0.239881 262.042 0.239882 257.566 3.00299 254.806C5.7661 252.045 10.246 252.045 13.0091 254.806L89.7225 331.451C92.4856 334.212 92.4856 338.688 89.7225 341.448C86.9594 344.209 82.4795 344.209 79.7164 341.448L3.00299 264.803Z" fill="black"/>
<path d="M79.7165 302.445C82.4796 299.684 86.9595 299.684 89.7226 302.445C92.4857 305.206 92.4857 309.682 89.7226 312.442L13.0092 389.087C10.2461 391.848 5.7662 391.848 3.0031 389.087C0.239988 386.327 0.239989 381.851 3.0031 379.09L79.7165 302.445Z" fill="black"/>
<path d="M3.00299 312.442C0.239881 309.682 0.239882 305.206 3.00299 302.445C5.7661 299.684 10.246 299.684 13.0091 302.445L89.7225 379.09C92.4856 381.851 92.4856 386.327 89.7225 389.087C86.9594 391.848 82.4795 391.848 79.7164 389.087L3.00299 312.442Z" fill="black"/>
<path d="M79.7165 350.084C82.4796 347.324 86.9595 347.324 89.7226 350.084C92.4857 352.845 92.4857 357.321 89.7226 360.081L13.0092 436.727C10.2461 439.487 5.7662 439.487 3.0031 436.727C0.239989 433.966 0.23999 429.49 3.0031 426.729L79.7165 350.084Z" fill="black"/>
<path d="M3.00299 360.081C0.239881 357.321 0.239882 352.845 3.00299 350.084C5.7661 347.324 10.246 347.324 13.0091 350.084L89.7225 426.729C92.4856 429.49 92.4856 433.966 89.7225 436.727C86.9594 439.487 82.4795 439.487 79.7164 436.727L3.00299 360.081Z" fill="black"/>
<path d="M2.79694 555.877C0.0338318 553.116 0.0338335 548.64 2.79694 545.88C5.56005 543.119 10.0399 543.119 12.803 545.88L46.1567 579.204L79.5104 545.88C82.2735 543.119 86.7534 543.119 89.5165 545.88C92.2796 548.64 92.2796 553.116 89.5165 555.877L56.6379 588.726H35.6755L2.79694 555.877Z" fill="black"/>
<path d="M1564.66 390.918C1567.42 388.157 1571.9 388.157 1574.67 390.918C1577.43 393.679 1577.43 398.154 1574.67 400.915L1497.95 477.56C1495.19 480.321 1490.71 480.321 1487.95 477.56C1485.18 474.8 1485.18 470.324 1487.95 467.563L1564.66 390.918Z" fill="black"/>
<path d="M1487.95 400.915C1485.18 398.154 1485.18 393.679 1487.95 390.918C1490.71 388.157 1495.19 388.157 1497.95 390.918L1574.67 467.563C1577.43 470.324 1577.43 474.8 1574.67 477.56C1571.9 480.321 1567.42 480.321 1564.66 477.56L1487.95 400.915Z" fill="black"/>
<path d="M1564.66 439.918C1567.42 437.158 1571.9 437.158 1574.67 439.918C1577.43 442.679 1577.43 447.155 1574.67 449.915L1497.95 526.561C1495.19 529.321 1490.71 529.321 1487.95 526.561C1485.18 523.8 1485.18 519.324 1487.95 516.563L1564.66 439.918Z" fill="black"/>
<path d="M1487.95 449.915C1485.18 447.155 1485.18 442.679 1487.95 439.918C1490.71 437.158 1495.19 437.158 1497.95 439.918L1574.67 516.563C1577.43 519.324 1577.43 523.8 1574.67 526.561C1571.9 529.321 1567.42 529.321 1564.66 526.561L1487.95 449.915Z" fill="black"/>
<path d="M1564.66 487.557C1567.42 484.797 1571.9 484.797 1574.67 487.557C1577.43 490.318 1577.43 494.794 1574.67 497.555L1497.95 574.2C1495.19 576.96 1490.71 576.96 1487.95 574.2C1485.18 571.439 1485.18 566.963 1487.95 564.203L1564.66 487.557Z" fill="black"/>
<path d="M1487.95 497.555C1485.18 494.794 1485.18 490.318 1487.95 487.557C1490.71 484.797 1495.19 484.797 1497.95 487.557L1574.67 564.203C1577.43 566.963 1577.43 571.439 1574.67 574.2C1571.9 576.96 1567.42 576.96 1564.66 574.2L1487.95 497.555Z" fill="black"/>
<path d="M1809.88 51.9988C1812.64 49.2382 1817.12 49.2382 1819.89 51.9988C1822.65 54.7595 1822.65 59.2354 1819.89 61.996L1743.17 138.641C1740.41 141.402 1735.93 141.402 1733.17 138.641C1730.4 135.881 1730.4 131.405 1733.17 128.644L1809.88 51.9988Z" fill="black"/>
<path d="M1733.17 61.996C1730.4 59.2354 1730.4 54.7595 1733.17 51.9988C1735.93 49.2382 1740.41 49.2382 1743.17 51.9988L1819.89 128.644C1822.65 131.405 1822.65 135.881 1819.89 138.641C1817.12 141.402 1812.64 141.402 1809.88 138.641L1733.17 61.996Z" fill="black"/>
<path d="M1809.88 100.999C1812.64 98.2385 1817.12 98.2385 1819.89 100.999C1822.65 103.76 1822.65 108.236 1819.89 110.996L1743.17 187.642C1740.41 190.402 1735.93 190.402 1733.17 187.642C1730.4 184.881 1730.4 180.405 1733.17 177.644L1809.88 100.999Z" fill="black"/>
<path d="M1733.17 110.996C1730.4 108.236 1730.4 103.76 1733.17 100.999C1735.93 98.2385 1740.41 98.2385 1743.17 100.999L1819.89 177.644C1822.65 180.405 1822.65 184.881 1819.89 187.642C1817.12 190.402 1812.64 190.402 1809.88 187.642L1733.17 110.996Z" fill="black"/>
<path d="M1809.88 148.638C1812.64 145.878 1817.12 145.878 1819.89 148.638C1822.65 151.399 1822.65 155.875 1819.89 158.636L1743.17 235.281C1740.41 238.041 1735.93 238.041 1733.17 235.281C1730.4 232.52 1730.4 228.044 1733.17 225.284L1809.88 148.638Z" fill="black"/>
<path d="M1733.17 158.636C1730.4 155.875 1730.4 151.399 1733.17 148.638C1735.93 145.878 1740.41 145.878 1743.17 148.638L1819.89 225.284C1822.65 228.044 1822.65 232.52 1819.89 235.281C1817.12 238.041 1812.64 238.041 1809.88 235.281L1733.17 158.636Z" fill="black"/>
<path d="M1809.88 197.639C1812.64 194.878 1817.12 194.878 1819.89 197.639C1822.65 200.399 1822.65 204.875 1819.89 207.636L1743.17 284.281C1740.41 287.042 1735.93 287.042 1733.17 284.281C1730.4 281.52 1730.4 277.045 1733.17 274.284L1809.88 197.639Z" fill="black"/>
<path d="M1733.17 207.636C1730.4 204.875 1730.4 200.399 1733.17 197.639C1735.93 194.878 1740.41 194.878 1743.17 197.639L1819.89 274.284C1822.65 277.045 1822.65 281.52 1819.89 284.281C1817.12 287.042 1812.64 287.042 1809.88 284.281L1733.17 207.636Z" fill="black"/>
<path d="M1809.88 246.639C1812.64 243.878 1817.12 243.878 1819.89 246.639C1822.65 249.4 1822.65 253.876 1819.89 256.636L1743.17 333.281C1740.41 336.042 1735.93 336.042 1733.17 333.281C1730.4 330.521 1730.4 326.045 1733.17 323.284L1809.88 246.639Z" fill="black"/>
<path d="M1733.17 256.636C1730.4 253.876 1730.4 249.4 1733.17 246.639C1735.93 243.878 1740.41 243.878 1743.17 246.639L1819.89 323.284C1822.65 326.045 1822.65 330.521 1819.89 333.281C1817.12 336.042 1812.64 336.042 1809.88 333.281L1733.17 256.636Z" fill="black"/>
<path d="M1613.7 4.3596C1616.47 1.59895 1620.95 1.59895 1623.71 4.3596C1626.47 7.12025 1626.47 11.5961 1623.71 14.3568L1547 91.002C1544.23 93.7626 1539.75 93.7626 1536.99 91.002C1534.23 88.2413 1534.23 83.7654 1536.99 81.0048L1613.7 4.3596Z" fill="black"/>
<path d="M1536.99 14.3568C1534.23 11.5961 1534.23 7.12024 1536.99 4.35959C1539.75 1.59894 1544.23 1.59894 1547 4.35959L1623.71 81.0048C1626.47 83.7654 1626.47 88.2413 1623.71 91.002C1620.95 93.7626 1616.47 93.7626 1613.7 91.002L1536.99 14.3568Z" fill="black"/>
<path d="M1662.75 4.3596C1665.51 1.59895 1669.99 1.59895 1672.75 4.3596C1675.52 7.12025 1675.52 11.5961 1672.75 14.3568L1596.04 91.002C1593.28 93.7626 1588.8 93.7626 1586.03 91.002C1583.27 88.2413 1583.27 83.7654 1586.03 81.0048L1662.75 4.3596Z" fill="black"/>
<path d="M1586.03 14.3568C1583.27 11.5961 1583.27 7.12024 1586.03 4.35959C1588.8 1.59894 1593.28 1.59894 1596.04 4.35959L1672.75 81.0048C1675.52 83.7654 1675.52 88.2413 1672.75 91.002C1669.99 93.7626 1665.51 93.7626 1662.75 91.002L1586.03 14.3568Z" fill="black"/>
<path d="M1713.15 4.3596C1715.92 1.59895 1720.4 1.59895 1723.16 4.3596C1725.92 7.12025 1725.92 11.5961 1723.16 14.3568L1646.45 91.002C1643.68 93.7626 1639.2 93.7626 1636.44 91.002C1633.68 88.2413 1633.68 83.7654 1636.44 81.0048L1713.15 4.3596Z" fill="black"/>
<path d="M1636.44 14.3568C1633.68 11.5961 1633.68 7.12024 1636.44 4.35959C1639.2 1.59894 1643.68 1.59894 1646.45 4.35959L1723.16 81.0048C1725.92 83.7654 1725.92 88.2413 1723.16 91.002C1720.4 93.7626 1715.92 93.7626 1713.15 91.002L1636.44 14.3568Z" fill="black"/>
<path d="M1762.2 4.3596C1764.96 1.59895 1769.44 1.59895 1772.2 4.3596C1774.97 7.12025 1774.97 11.5961 1772.2 14.3568L1695.49 91.002C1692.73 93.7626 1688.25 93.7626 1685.49 91.002C1682.72 88.2413 1682.72 83.7654 1685.49 81.0048L1762.2 4.3596Z" fill="black"/>
<path d="M1685.48 14.3568C1682.72 11.5961 1682.72 7.12024 1685.49 4.35959C1688.25 1.59894 1692.73 1.59894 1695.49 4.35959L1772.2 81.0048C1774.97 83.7654 1774.97 88.2413 1772.2 91.002C1769.44 93.7626 1764.96 93.7626 1762.2 91.002L1685.48 14.3568Z" fill="black"/>
<path d="M1809.88 4.3596C1812.64 1.59895 1817.12 1.59895 1819.89 4.3596C1822.65 7.12025 1822.65 11.5961 1819.89 14.3568L1743.17 91.002C1740.41 93.7626 1735.93 93.7626 1733.17 91.002C1730.4 88.2413 1730.4 83.7654 1733.17 81.0048L1809.88 4.3596Z" fill="black"/>
<path d="M1733.17 14.3568C1730.4 11.5961 1730.4 7.12024 1733.17 4.35959C1735.93 1.59894 1740.41 1.59894 1743.17 4.35959L1819.89 81.0048C1822.65 83.7654 1822.65 88.2413 1819.89 91.002C1817.12 93.7626 1812.64 93.7626 1809.88 91.002L1733.17 14.3568Z" fill="black"/>
<path d="M1564.66 5.72072C1567.42 2.96007 1571.9 2.96007 1574.67 5.72072C1577.43 8.48137 1577.43 12.9573 1574.67 15.7179L1497.95 92.3631C1495.19 95.1237 1490.71 95.1237 1487.95 92.3631C1485.18 89.6024 1485.18 85.1265 1487.95 82.3659L1564.66 5.72072Z" fill="black"/>
<path d="M1487.95 15.7179C1485.18 12.9573 1485.18 8.48136 1487.95 5.72071C1490.71 2.96006 1495.19 2.96006 1497.95 5.72071L1574.67 82.3659C1577.43 85.1265 1577.43 89.6024 1574.67 92.3631C1571.9 95.1237 1567.42 95.1237 1564.66 92.3631L1487.95 15.7179Z" fill="black"/>
<path d="M2446.17 4.71152C2448.93 1.95087 2453.41 1.95087 2456.17 4.71152C2458.93 7.47217 2458.93 11.9481 2456.17 14.7087L2379.46 91.3539C2376.7 94.1145 2372.22 94.1145 2369.45 91.3539C2366.69 88.5932 2366.69 84.1173 2369.45 81.3567L2446.17 4.71152Z" fill="black"/>
<path d="M2369.45 14.7087C2366.69 11.9481 2366.69 7.47216 2369.45 4.71151C2372.22 1.95086 2376.69 1.95086 2379.46 4.71152L2456.17 81.3567C2458.93 84.1173 2458.93 88.5932 2456.17 91.3539C2453.41 94.1145 2448.93 94.1145 2446.17 91.3539L2369.45 14.7087Z" fill="black"/>
<path d="M2495.21 4.71152C2497.97 1.95087 2502.45 1.95087 2505.22 4.71152C2507.98 7.47217 2507.98 11.9481 2505.22 14.7087L2428.5 91.3539C2425.74 94.1145 2421.26 94.1145 2418.5 91.3539C2415.73 88.5932 2415.73 84.1173 2418.5 81.3567L2495.21 4.71152Z" fill="black"/>
<path d="M2418.5 14.7087C2415.73 11.9481 2415.73 7.47216 2418.5 4.71151C2421.26 1.95086 2425.74 1.95086 2428.5 4.71151L2505.22 81.3567C2507.98 84.1173 2507.98 88.5932 2505.22 91.3539C2502.45 94.1145 2497.97 94.1145 2495.21 91.3539L2418.5 14.7087Z" fill="black"/>
<path d="M2545.62 4.71152C2548.38 1.95087 2552.86 1.95087 2555.62 4.71152C2558.38 7.47217 2558.38 11.9481 2555.62 14.7087L2478.91 91.3539C2476.15 94.1145 2471.67 94.1145 2468.9 91.3539C2466.14 88.5932 2466.14 84.1173 2468.9 81.3567L2545.62 4.71152Z" fill="black"/>
<path d="M2468.9 14.7087C2466.14 11.9481 2466.14 7.47216 2468.9 4.71151C2471.67 1.95086 2476.15 1.95086 2478.91 4.71151L2555.62 81.3567C2558.38 84.1173 2558.38 88.5932 2555.62 91.3539C2552.86 94.1145 2548.38 94.1145 2545.62 91.3539L2468.9 14.7087Z" fill="black"/>
<path d="M2397.12 6.07284C2399.88 3.31219 2404.36 3.31219 2407.13 6.07284C2409.89 8.83349 2409.89 13.3094 2407.13 16.07L2330.41 92.7152C2327.65 95.4758 2323.17 95.4758 2320.41 92.7152C2317.65 89.9545 2317.65 85.4787 2320.41 82.718L2397.12 6.07284Z" fill="black"/>
<path d="M2320.41 16.07C2317.64 13.3094 2317.64 8.83348 2320.41 6.07283C2323.17 3.31218 2327.65 3.31218 2330.41 6.07283L2407.13 82.718C2409.89 85.4786 2409.89 89.9546 2407.13 92.7152C2404.36 95.4759 2399.88 95.4758 2397.12 92.7152L2320.41 16.07Z" fill="black"/>
<path d="M2447.53 487.909C2450.29 485.149 2454.77 485.149 2457.53 487.909C2460.3 490.67 2460.3 495.146 2457.53 497.907L2380.82 574.552C2378.06 577.312 2373.58 577.312 2370.81 574.552C2368.05 571.791 2368.05 567.315 2370.81 564.555L2447.53 487.909Z" fill="black"/>
<path d="M2370.81 497.907C2368.05 495.146 2368.05 490.67 2370.81 487.909C2373.58 485.149 2378.06 485.149 2380.82 487.909L2457.53 564.555C2460.3 567.315 2460.3 571.791 2457.53 574.552C2454.77 577.312 2450.29 577.312 2447.53 574.552L2370.81 497.907Z" fill="black"/>
<path d="M2496.57 487.909C2499.33 485.149 2503.81 485.149 2506.58 487.909C2509.34 490.67 2509.34 495.146 2506.58 497.907L2429.86 574.552C2427.1 577.312 2422.62 577.312 2419.86 574.552C2417.1 571.791 2417.1 567.315 2419.86 564.555L2496.57 487.909Z" fill="black"/>
<path d="M2419.86 497.907C2417.1 495.146 2417.1 490.67 2419.86 487.909C2422.62 485.149 2427.1 485.149 2429.86 487.909L2506.58 564.555C2509.34 567.315 2509.34 571.791 2506.58 574.552C2503.81 577.312 2499.33 577.312 2496.57 574.552L2419.86 497.907Z" fill="black"/>
<path d="M2546.98 487.909C2549.74 485.149 2554.22 485.149 2556.98 487.909C2559.75 490.67 2559.75 495.146 2556.98 497.907L2480.27 574.552C2477.51 577.312 2473.03 577.312 2470.26 574.552C2467.5 571.791 2467.5 567.315 2470.26 564.555L2546.98 487.909Z" fill="black"/>
<path d="M2470.26 497.907C2467.5 495.146 2467.5 490.67 2470.26 487.909C2473.03 485.149 2477.51 485.149 2480.27 487.909L2556.98 564.555C2559.75 567.315 2559.75 571.791 2556.98 574.552C2554.22 577.312 2549.74 577.312 2546.98 574.552L2470.26 497.907Z" fill="black"/>
<path d="M2398.48 489.27C2401.25 486.51 2405.73 486.51 2408.49 489.27C2411.25 492.031 2411.25 496.507 2408.49 499.267L2331.78 575.913C2329.01 578.673 2324.53 578.673 2321.77 575.913C2319.01 573.152 2319.01 568.676 2321.77 565.915L2398.48 489.27Z" fill="black"/>
<path d="M2321.77 499.267C2319.01 496.507 2319.01 492.031 2321.77 489.27C2324.53 486.51 2329.01 486.51 2331.78 489.27L2408.49 565.915C2411.25 568.676 2411.25 573.152 2408.49 575.913C2405.73 578.673 2401.25 578.673 2398.48 575.913L2321.77 499.267Z" fill="black"/>
<path d="M1612.34 246.639C1615.11 243.878 1619.58 243.878 1622.35 246.639C1625.11 249.4 1625.11 253.876 1622.35 256.636L1545.63 333.281C1542.87 336.042 1538.39 336.042 1535.63 333.281C1532.87 330.521 1532.87 326.045 1535.63 323.284L1612.34 246.639Z" fill="black"/>
<path d="M1535.63 256.636C1532.87 253.876 1532.87 249.4 1535.63 246.639C1538.39 243.878 1542.87 243.878 1545.63 246.639L1622.35 323.284C1625.11 326.045 1625.11 330.521 1622.35 333.281C1619.58 336.042 1615.1 336.042 1612.34 333.281L1535.63 256.636Z" fill="black"/>
<path d="M1662.75 248C1665.51 245.24 1669.99 245.24 1672.75 248C1675.52 250.761 1675.52 255.237 1672.75 257.997L1596.04 334.643C1593.28 337.403 1588.8 337.403 1586.03 334.643C1583.27 331.882 1583.27 327.406 1586.03 324.645L1662.75 248Z" fill="black"/>
<path d="M1586.03 257.997C1583.27 255.237 1583.27 250.761 1586.03 248C1588.8 245.24 1593.28 245.24 1596.04 248L1672.75 324.645C1675.52 327.406 1675.52 331.882 1672.75 334.643C1669.99 337.403 1665.51 337.403 1662.75 334.643L1586.03 257.997Z" fill="black"/>
<path d="M1711.79 248C1714.56 245.24 1719.04 245.24 1721.8 248C1724.56 250.761 1724.56 255.237 1721.8 257.997L1645.08 334.643C1642.32 337.403 1637.84 337.403 1635.08 334.643C1632.32 331.882 1632.32 327.406 1635.08 324.645L1711.79 248Z" fill="black"/>
<path d="M1635.08 257.997C1632.32 255.237 1632.32 250.761 1635.08 248C1637.84 245.24 1642.32 245.24 1645.08 248L1721.8 324.645C1724.56 327.406 1724.56 331.882 1721.8 334.643C1719.04 337.403 1714.56 337.403 1711.79 334.643L1635.08 257.997Z" fill="black"/>
<path d="M1759.47 248C1762.24 245.24 1766.72 245.24 1769.48 248C1772.24 250.761 1772.24 255.237 1769.48 257.997L1692.77 334.643C1690 337.403 1685.52 337.403 1682.76 334.643C1680 331.882 1680 327.406 1682.76 324.645L1759.47 248Z" fill="black"/>
<path d="M1682.76 257.997C1680 255.237 1680 250.761 1682.76 248C1685.52 245.24 1690 245.24 1692.77 248L1769.48 324.645C1772.24 327.406 1772.24 331.882 1769.48 334.643C1766.72 337.403 1762.24 337.403 1759.47 334.643L1682.76 257.997Z" fill="black"/>
<path d="M1564.66 53.3599C1567.42 50.5993 1571.9 50.5993 1574.67 53.3599C1577.43 56.1206 1577.43 60.5965 1574.67 63.3571L1497.95 140.002C1495.19 142.763 1490.71 142.763 1487.95 140.002C1485.18 137.242 1485.18 132.766 1487.95 130.005L1564.66 53.3599Z" fill="black"/>
<path d="M1487.95 63.3571C1485.18 60.5965 1485.18 56.1206 1487.95 53.3599C1490.71 50.5993 1495.19 50.5993 1497.95 53.3599L1574.67 130.005C1577.43 132.766 1577.43 137.242 1574.67 140.002C1571.9 142.763 1567.42 142.763 1564.66 140.002L1487.95 63.3571Z" fill="black"/>
<path d="M1564.66 100.999C1567.42 98.2385 1571.9 98.2385 1574.67 100.999C1577.43 103.76 1577.43 108.236 1574.67 110.996L1497.95 187.642C1495.19 190.402 1490.71 190.402 1487.95 187.642C1485.18 184.881 1485.18 180.405 1487.95 177.644L1564.66 100.999Z" fill="black"/>
<path d="M1487.95 110.996C1485.18 108.236 1485.18 103.76 1487.95 100.999C1490.71 98.2385 1495.19 98.2385 1497.95 100.999L1574.67 177.644C1577.43 180.405 1577.43 184.881 1574.67 187.642C1571.9 190.402 1567.42 190.402 1564.66 187.642L1487.95 110.996Z" fill="black"/>
<path d="M1564.66 150C1567.42 147.239 1571.9 147.239 1574.67 150C1577.43 152.76 1577.43 157.236 1574.67 159.997L1497.95 236.642C1495.19 239.403 1490.71 239.403 1487.95 236.642C1485.18 233.881 1485.18 229.405 1487.95 226.645L1564.66 150Z" fill="black"/>
<path d="M1487.95 159.997C1485.18 157.236 1485.18 152.76 1487.95 150C1490.71 147.239 1495.19 147.239 1497.95 150L1574.67 226.645C1577.43 229.405 1577.43 233.881 1574.67 236.642C1571.9 239.403 1567.42 239.403 1564.66 236.642L1487.95 159.997Z" fill="black"/>
<path d="M1564.66 199C1567.42 196.239 1571.9 196.239 1574.67 199C1577.43 201.761 1577.43 206.236 1574.67 208.997L1497.95 285.642C1495.19 288.403 1490.71 288.403 1487.95 285.642C1485.18 282.882 1485.18 278.406 1487.95 275.645L1564.66 199Z" fill="black"/>
<path d="M1487.95 208.997C1485.18 206.236 1485.18 201.761 1487.95 199C1490.71 196.239 1495.19 196.239 1497.95 199L1574.67 275.645C1577.43 278.406 1577.43 282.882 1574.67 285.642C1571.9 288.403 1567.42 288.403 1564.66 285.642L1487.95 208.997Z" fill="black"/>
<path d="M1564.66 246.639C1567.42 243.878 1571.9 243.878 1574.67 246.639C1577.43 249.4 1577.43 253.876 1574.67 256.636L1497.95 333.281C1495.19 336.042 1490.71 336.042 1487.95 333.281C1485.18 330.521 1485.18 326.045 1487.95 323.284L1564.66 246.639Z" fill="black"/>
<path d="M1487.95 256.636C1485.18 253.876 1485.18 249.4 1487.95 246.639C1490.71 243.878 1495.19 243.878 1497.95 246.639L1574.67 323.284C1577.43 326.045 1577.43 330.521 1574.67 333.281C1571.9 336.042 1567.42 336.042 1564.66 333.281L1487.95 256.636Z" fill="black"/>
<path d="M1564.66 294.278C1567.42 291.518 1571.9 291.518 1574.67 294.278C1577.43 297.039 1577.43 301.515 1574.67 304.276L1497.95 380.921C1495.19 383.681 1490.71 383.681 1487.95 380.921C1485.18 378.16 1485.18 373.684 1487.95 370.923L1564.66 294.278Z" fill="black"/>
<path d="M1487.95 304.276C1485.18 301.515 1485.18 297.039 1487.95 294.278C1490.71 291.518 1495.19 291.518 1497.95 294.278L1574.67 370.923C1577.43 373.684 1577.43 378.16 1574.67 380.921C1571.9 383.681 1567.42 383.681 1564.66 380.921L1487.95 304.276Z" fill="black"/>
<path d="M1564.66 341.918C1567.42 339.157 1571.9 339.157 1574.67 341.918C1577.43 344.678 1577.43 349.154 1574.67 351.915L1497.95 428.56C1495.19 431.321 1490.71 431.321 1487.95 428.56C1485.18 425.799 1485.18 421.323 1487.95 418.563L1564.66 341.918Z" fill="black"/>
<path d="M1487.95 351.915C1485.18 349.154 1485.18 344.678 1487.95 341.918C1490.71 339.157 1495.19 339.157 1497.95 341.918L1574.67 418.563C1577.43 421.323 1577.43 425.799 1574.67 428.56C1571.9 431.321 1567.42 431.321 1564.66 428.56L1487.95 351.915Z" fill="black"/>
<path d="M1487.74 547.71C1484.98 544.95 1484.98 540.474 1487.74 537.713C1490.5 534.952 1494.98 534.952 1497.75 537.713L1531.1 571.037L1564.45 537.713C1567.22 534.952 1571.7 534.952 1574.46 537.713C1577.22 540.474 1577.22 544.95 1574.46 547.71L1541.58 580.56H1520.62L1487.74 547.71Z" fill="black"/>
<path d="M869.87 396.362C872.633 393.602 877.113 393.602 879.876 396.362C882.639 399.123 882.639 403.599 879.876 406.36L803.163 483.005C800.4 485.765 795.92 485.765 793.157 483.005C790.394 480.244 790.394 475.768 793.157 473.008L869.87 396.362Z" fill="black"/>
<path d="M793.157 406.36C790.393 403.599 790.393 399.123 793.157 396.362C795.92 393.602 800.4 393.602 803.163 396.362L879.876 473.008C882.639 475.768 882.639 480.244 879.876 483.005C877.113 485.765 872.633 485.765 869.87 483.005L793.157 406.36Z" fill="black"/>
<path d="M869.87 445.363C872.633 442.602 877.113 442.602 879.876 445.363C882.639 448.123 882.639 452.599 879.876 455.36L803.163 532.005C800.4 534.766 795.92 534.766 793.157 532.005C790.394 529.244 790.394 524.769 793.157 522.008L869.87 445.363Z" fill="black"/>
<path d="M793.157 455.36C790.393 452.599 790.393 448.123 793.157 445.363C795.92 442.602 800.4 442.602 803.163 445.363L879.876 522.008C882.639 524.769 882.639 529.244 879.876 532.005C877.113 534.766 872.633 534.766 869.87 532.005L793.157 455.36Z" fill="black"/>
<path d="M869.87 493.002C872.633 490.241 877.113 490.241 879.876 493.002C882.639 495.763 882.639 500.238 879.876 502.999L803.163 579.644C800.4 582.405 795.92 582.405 793.157 579.644C790.394 576.884 790.394 572.408 793.157 569.647L869.87 493.002Z" fill="black"/>
<path d="M793.157 502.999C790.393 500.238 790.393 495.763 793.157 493.002C795.92 490.241 800.4 490.241 803.163 493.002L879.876 569.647C882.639 572.408 882.639 576.884 879.876 579.644C877.113 582.405 872.633 582.405 869.87 579.644L793.157 502.999Z" fill="black"/>
<path d="M869.87 11.1652C872.633 8.40455 877.113 8.40455 879.876 11.1652C882.639 13.9259 882.639 18.4017 879.876 21.1624L803.163 97.8076C800.4 100.568 795.92 100.568 793.157 97.8076C790.394 95.0469 790.394 90.571 793.157 87.8104L869.87 11.1652Z" fill="black"/>
<path d="M793.157 21.1624C790.393 18.4017 790.393 13.9258 793.157 11.1652C795.92 8.40454 800.4 8.40455 803.163 11.1652L879.876 87.8104C882.639 90.571 882.639 95.0469 879.876 97.8076C877.113 100.568 872.633 100.568 869.87 97.8076L793.157 21.1624Z" fill="black"/>
<path d="M869.87 58.8044C872.633 56.0438 877.113 56.0438 879.876 58.8044C882.639 61.5651 882.639 66.041 879.876 68.8016L803.163 145.447C800.4 148.207 795.92 148.207 793.157 145.447C790.394 142.686 790.394 138.21 793.157 135.45L869.87 58.8044Z" fill="black"/>
<path d="M793.157 68.8016C790.393 66.041 790.393 61.5651 793.157 58.8044C795.92 56.0438 800.4 56.0438 803.163 58.8044L879.876 135.45C882.639 138.21 882.639 142.686 879.876 145.447C877.113 148.207 872.633 148.207 869.87 145.447L793.157 68.8016Z" fill="black"/>
<path d="M869.87 106.444C872.633 103.683 877.113 103.683 879.876 106.444C882.639 109.204 882.639 113.68 879.876 116.441L803.163 193.086C800.4 195.847 795.92 195.847 793.157 193.086C790.394 190.325 790.394 185.849 793.157 183.089L869.87 106.444Z" fill="black"/>
<path d="M793.157 116.441C790.393 113.68 790.393 109.204 793.157 106.444C795.92 103.683 800.4 103.683 803.163 106.444L879.876 183.089C882.639 185.849 882.639 190.325 879.876 193.086C877.113 195.847 872.633 195.847 869.87 193.086L793.157 116.441Z" fill="black"/>
<path d="M869.87 155.444C872.633 152.683 877.113 152.683 879.876 155.444C882.639 158.205 882.639 162.681 879.876 165.441L803.163 242.086C800.4 244.847 795.92 244.847 793.157 242.086C790.394 239.326 790.394 234.85 793.157 232.089L869.87 155.444Z" fill="black"/>
<path d="M793.157 165.441C790.393 162.681 790.393 158.205 793.157 155.444C795.92 152.683 800.4 152.683 803.163 155.444L879.876 232.089C882.639 234.85 882.639 239.326 879.876 242.086C877.113 244.847 872.633 244.847 869.87 242.086L793.157 165.441Z" fill="black"/>
<path d="M869.87 204.444C872.633 201.684 877.113 201.684 879.876 204.444C882.639 207.205 882.639 211.681 879.876 214.442L803.163 291.087C800.4 293.847 795.92 293.847 793.157 291.087C790.394 288.326 790.394 283.85 793.157 281.089L869.87 204.444Z" fill="black"/>
<path d="M793.157 214.442C790.393 211.681 790.393 207.205 793.157 204.444C795.92 201.684 800.4 201.684 803.163 204.444L879.876 281.09C882.639 283.85 882.639 288.326 879.876 291.087C877.113 293.847 872.633 293.847 869.87 291.087L793.157 214.442Z" fill="black"/>
<path d="M869.87 252.084C872.633 249.323 877.113 249.323 879.876 252.084C882.639 254.844 882.639 259.32 879.876 262.081L803.163 338.726C800.4 341.487 795.92 341.487 793.157 338.726C790.394 335.965 790.394 331.489 793.157 328.729L869.87 252.084Z" fill="black"/>
<path d="M793.157 262.081C790.393 259.32 790.393 254.844 793.157 252.084C795.92 249.323 800.4 249.323 803.163 252.084L879.876 328.729C882.639 331.489 882.639 335.965 879.876 338.726C877.113 341.487 872.633 341.487 869.87 338.726L793.157 262.081Z" fill="black"/>
<path d="M869.87 299.723C872.633 296.962 877.113 296.962 879.876 299.723C882.639 302.483 882.639 306.959 879.876 309.72L803.163 386.365C800.4 389.126 795.92 389.126 793.157 386.365C790.394 383.604 790.394 379.129 793.157 376.368L869.87 299.723Z" fill="black"/>
<path d="M793.157 309.72C790.393 306.959 790.393 302.483 793.157 299.723C795.92 296.962 800.4 296.962 803.163 299.723L879.876 376.368C882.639 379.129 882.639 383.605 879.876 386.365C877.113 389.126 872.633 389.126 869.87 386.365L793.157 309.72Z" fill="black"/>
<path d="M869.87 347.362C872.633 344.601 877.113 344.601 879.876 347.362C882.639 350.123 882.639 354.599 879.876 357.359L803.163 434.004C800.4 436.765 795.92 436.765 793.157 434.004C790.394 431.244 790.394 426.768 793.157 424.007L869.87 347.362Z" fill="black"/>
<path d="M793.157 357.359C790.393 354.599 790.393 350.123 793.157 347.362C795.92 344.601 800.4 344.601 803.163 347.362L879.876 424.007C882.639 426.768 882.639 431.244 879.876 434.004C877.113 436.765 872.633 436.765 869.87 434.004L793.157 357.359Z" fill="black"/>
<path d="M792.95 553.155C790.187 550.394 790.187 545.918 792.95 543.158C795.714 540.397 800.193 540.397 802.957 543.158L836.31 576.482L869.664 543.158C872.427 540.397 876.907 540.397 879.67 543.158C882.433 545.918 882.433 550.394 879.67 553.155L846.791 586.004H825.829L792.95 553.155Z" fill="black"/>
<path d="M792.95 40.377C790.187 43.1377 790.187 47.6136 792.95 50.3742C795.714 53.1349 800.193 53.1349 802.957 50.3742L836.31 17.0502L869.664 50.3742C872.427 53.1349 876.907 53.1349 879.67 50.3742C882.433 47.6136 882.433 43.1377 879.67 40.377L846.792 7.52771H825.829L792.95 40.377Z" fill="black"/>
<path d="M1417.53 390.918C1420.29 388.157 1424.77 388.157 1427.53 390.918C1430.3 393.679 1430.3 398.154 1427.53 400.915L1350.82 477.56C1348.06 480.321 1343.58 480.321 1340.81 477.56C1338.05 474.8 1338.05 470.324 1340.81 467.563L1417.53 390.918Z" fill="black"/>
<path d="M1340.81 400.915C1338.05 398.154 1338.05 393.679 1340.81 390.918C1343.58 388.157 1348.06 388.157 1350.82 390.918L1427.53 467.563C1430.3 470.324 1430.3 474.8 1427.53 477.56C1424.77 480.321 1420.29 480.321 1417.53 477.56L1340.81 400.915Z" fill="black"/>
<path d="M1417.53 439.918C1420.29 437.158 1424.77 437.158 1427.53 439.918C1430.3 442.679 1430.3 447.155 1427.53 449.915L1350.82 526.561C1348.06 529.321 1343.58 529.321 1340.81 526.561C1338.05 523.8 1338.05 519.324 1340.81 516.563L1417.53 439.918Z" fill="black"/>
<path d="M1340.81 449.915C1338.05 447.155 1338.05 442.679 1340.81 439.918C1343.58 437.158 1348.06 437.158 1350.82 439.918L1427.53 516.563C1430.3 519.324 1430.3 523.8 1427.53 526.561C1424.77 529.321 1420.29 529.321 1417.53 526.561L1340.81 449.915Z" fill="black"/>
<path d="M1417.53 487.557C1420.29 484.797 1424.77 484.797 1427.53 487.557C1430.3 490.318 1430.3 494.794 1427.53 497.555L1350.82 574.2C1348.06 576.96 1343.58 576.96 1340.81 574.2C1338.05 571.439 1338.05 566.963 1340.81 564.203L1417.53 487.557Z" fill="black"/>
<path d="M1340.81 497.555C1338.05 494.794 1338.05 490.318 1340.81 487.557C1343.58 484.797 1348.06 484.797 1350.82 487.557L1427.53 564.203C1430.3 566.963 1430.3 571.439 1427.53 574.2C1424.77 576.96 1420.29 576.96 1417.53 574.2L1340.81 497.555Z" fill="black"/>
<path d="M1417.53 5.72072C1420.29 2.96007 1424.77 2.96007 1427.53 5.72072C1430.3 8.48137 1430.3 12.9573 1427.53 15.7179L1350.82 92.3631C1348.06 95.1237 1343.58 95.1237 1340.81 92.3631C1338.05 89.6024 1338.05 85.1265 1340.81 82.3659L1417.53 5.72072Z" fill="black"/>
<path d="M1340.81 15.7179C1338.05 12.9573 1338.05 8.48136 1340.81 5.72071C1343.58 2.96006 1348.06 2.96006 1350.82 5.72071L1427.53 82.3659C1430.3 85.1265 1430.3 89.6024 1427.53 92.3631C1424.77 95.1237 1420.29 95.1237 1417.53 92.3631L1340.81 15.7179Z" fill="black"/>
<path d="M1417.53 53.3599C1420.29 50.5993 1424.77 50.5993 1427.53 53.3599C1430.3 56.1206 1430.3 60.5965 1427.53 63.3571L1350.82 140.002C1348.06 142.763 1343.58 142.763 1340.81 140.002C1338.05 137.242 1338.05 132.766 1340.81 130.005L1417.53 53.3599Z" fill="black"/>
<path d="M1340.81 63.3571C1338.05 60.5965 1338.05 56.1206 1340.81 53.3599C1343.58 50.5993 1348.06 50.5993 1350.82 53.3599L1427.53 130.005C1430.3 132.766 1430.3 137.242 1427.53 140.002C1424.77 142.763 1420.29 142.763 1417.53 140.002L1340.81 63.3571Z" fill="black"/>
<path d="M1417.53 100.999C1420.29 98.2385 1424.77 98.2385 1427.53 100.999C1430.3 103.76 1430.3 108.236 1427.53 110.996L1350.82 187.642C1348.06 190.402 1343.58 190.402 1340.81 187.642C1338.05 184.881 1338.05 180.405 1340.81 177.644L1417.53 100.999Z" fill="black"/>
<path d="M1340.81 110.996C1338.05 108.236 1338.05 103.76 1340.81 100.999C1343.58 98.2385 1348.06 98.2385 1350.82 100.999L1427.53 177.644C1430.3 180.405 1430.3 184.881 1427.53 187.642C1424.77 190.402 1420.29 190.402 1417.53 187.642L1340.81 110.996Z" fill="black"/>
<path d="M1417.53 150C1420.29 147.239 1424.77 147.239 1427.53 150C1430.3 152.76 1430.3 157.236 1427.53 159.997L1350.82 236.642C1348.06 239.403 1343.58 239.403 1340.81 236.642C1338.05 233.881 1338.05 229.405 1340.81 226.645L1417.53 150Z" fill="black"/>
<path d="M1340.81 159.997C1338.05 157.236 1338.05 152.76 1340.81 150C1343.58 147.239 1348.06 147.239 1350.82 150L1427.53 226.645C1430.3 229.405 1430.3 233.881 1427.53 236.642C1424.77 239.403 1420.29 239.403 1417.53 236.642L1340.81 159.997Z" fill="black"/>
<path d="M1417.53 199C1420.29 196.239 1424.77 196.239 1427.53 199C1430.3 201.761 1430.3 206.236 1427.53 208.997L1350.82 285.642C1348.06 288.403 1343.58 288.403 1340.81 285.642C1338.05 282.882 1338.05 278.406 1340.81 275.645L1417.53 199Z" fill="black"/>
<path d="M1340.81 208.997C1338.05 206.236 1338.05 201.761 1340.81 199C1343.58 196.239 1348.06 196.239 1350.82 199L1427.53 275.645C1430.3 278.406 1430.3 282.882 1427.53 285.642C1424.77 288.403 1420.29 288.403 1417.53 285.642L1340.81 208.997Z" fill="black"/>
<path d="M1417.53 246.639C1420.29 243.878 1424.77 243.878 1427.53 246.639C1430.3 249.4 1430.3 253.876 1427.53 256.636L1350.82 333.281C1348.06 336.042 1343.58 336.042 1340.81 333.281C1338.05 330.521 1338.05 326.045 1340.81 323.284L1417.53 246.639Z" fill="black"/>
<path d="M1340.81 256.636C1338.05 253.876 1338.05 249.4 1340.81 246.639C1343.58 243.878 1348.06 243.878 1350.82 246.639L1427.53 323.284C1430.3 326.045 1430.3 330.521 1427.53 333.281C1424.77 336.042 1420.29 336.042 1417.53 333.281L1340.81 256.636Z" fill="black"/>
<path d="M1417.53 294.278C1420.29 291.518 1424.77 291.518 1427.53 294.278C1430.3 297.039 1430.3 301.515 1427.53 304.276L1350.82 380.921C1348.06 383.681 1343.58 383.681 1340.81 380.921C1338.05 378.16 1338.05 373.684 1340.81 370.923L1417.53 294.278Z" fill="black"/>
<path d="M1340.81 304.276C1338.05 301.515 1338.05 297.039 1340.81 294.278C1343.58 291.518 1348.06 291.518 1350.82 294.278L1427.53 370.923C1430.3 373.684 1430.3 378.16 1427.53 380.921C1424.77 383.681 1420.29 383.681 1417.53 380.921L1340.81 304.276Z" fill="black"/>
<path d="M1417.53 341.918C1420.29 339.157 1424.77 339.157 1427.53 341.918C1430.3 344.678 1430.3 349.154 1427.53 351.915L1350.82 428.56C1348.06 431.321 1343.58 431.321 1340.81 428.56C1338.05 425.799 1338.05 421.323 1340.81 418.563L1417.53 341.918Z" fill="black"/>
<path d="M1340.81 351.915C1338.05 349.154 1338.05 344.678 1340.81 341.918C1343.58 339.157 1348.06 339.157 1350.82 341.918L1427.53 418.563C1430.3 421.323 1430.3 425.799 1427.53 428.56C1424.77 431.321 1420.29 431.321 1417.53 428.56L1340.81 351.915Z" fill="black"/>
<path d="M1340.61 547.71C1337.85 544.95 1337.85 540.474 1340.61 537.713C1343.37 534.952 1347.85 534.952 1350.61 537.713L1383.97 571.037L1417.32 537.713C1420.09 534.952 1424.57 534.952 1427.33 537.713C1430.09 540.474 1430.09 544.95 1427.33 547.71L1394.45 580.56H1373.49L1340.61 547.71Z" fill="black"/>
<path d="M1340.61 34.9325C1337.85 37.6932 1337.85 42.1691 1340.61 44.9297C1343.37 47.6904 1347.85 47.6904 1350.61 44.9297L1383.97 11.6057L1417.32 44.9297C1420.09 47.6904 1424.57 47.6904 1427.33 44.9297C1430.09 42.1691 1430.09 37.6932 1427.33 34.9325L1394.45 2.08323H1373.49L1340.61 34.9325Z" fill="black"/>
<path d="M2594.66 391.27C2597.42 388.509 2601.9 388.509 2604.67 391.27C2607.43 394.03 2607.43 398.506 2604.67 401.267L2527.95 477.912C2525.19 480.673 2520.71 480.673 2517.95 477.912C2515.18 475.151 2515.18 470.675 2517.95 467.915L2594.66 391.27Z" fill="black"/>
<path d="M2517.95 401.267C2515.18 398.506 2515.18 394.03 2517.95 391.27C2520.71 388.509 2525.19 388.509 2527.95 391.27L2604.67 467.915C2607.43 470.675 2607.43 475.151 2604.67 477.912C2601.9 480.673 2597.42 480.673 2594.66 477.912L2517.95 401.267Z" fill="black"/>
<path d="M2594.66 440.27C2597.42 437.509 2601.9 437.509 2604.67 440.27C2607.43 443.031 2607.43 447.507 2604.67 450.267L2527.95 526.912C2525.19 529.673 2520.71 529.673 2517.95 526.912C2515.18 524.152 2515.18 519.676 2517.95 516.915L2594.66 440.27Z" fill="black"/>
<path d="M2517.95 450.267C2515.18 447.507 2515.18 443.031 2517.95 440.27C2520.71 437.509 2525.19 437.509 2527.95 440.27L2604.67 516.915C2607.43 519.676 2607.43 524.152 2604.67 526.912C2601.9 529.673 2597.42 529.673 2594.66 526.912L2517.95 450.267Z" fill="black"/>
<path d="M2596.02 487.909C2598.79 485.149 2603.26 485.149 2606.03 487.909C2608.79 490.67 2608.79 495.146 2606.03 497.907L2529.31 574.552C2526.55 577.312 2522.07 577.312 2519.31 574.552C2516.55 571.791 2516.55 567.315 2519.31 564.555L2596.02 487.909Z" fill="black"/>
<path d="M2519.31 497.907C2516.55 495.146 2516.55 490.67 2519.31 487.909C2522.07 485.149 2526.55 485.149 2529.31 487.909L2606.03 564.555C2608.79 567.315 2608.79 571.791 2606.03 574.552C2603.26 577.312 2598.79 577.312 2596.02 574.552L2519.31 497.907Z" fill="black"/>
<path d="M2594.66 6.07284C2597.42 3.31219 2601.9 3.31219 2604.67 6.07284C2607.43 8.83349 2607.43 13.3094 2604.67 16.07L2527.95 92.7152C2525.19 95.4758 2520.71 95.4758 2517.95 92.7152C2515.18 89.9545 2515.18 85.4787 2517.95 82.718L2594.66 6.07284Z" fill="black"/>
<path d="M2517.95 16.07C2515.18 13.3094 2515.18 8.83348 2517.95 6.07283C2520.71 3.31218 2525.19 3.31218 2527.95 6.07283L2604.67 82.718C2607.43 85.4786 2607.43 89.9546 2604.67 92.7152C2601.9 95.4759 2597.42 95.4758 2594.66 92.7152L2517.95 16.07Z" fill="black"/>
<path d="M2594.66 53.7118C2597.42 50.9512 2601.9 50.9512 2604.67 53.7118C2607.43 56.4725 2607.43 60.9484 2604.67 63.709L2527.95 140.354C2525.19 143.115 2520.71 143.115 2517.95 140.354C2515.18 137.594 2515.18 133.118 2517.95 130.357L2594.66 53.7118Z" fill="black"/>
<path d="M2517.95 63.709C2515.18 60.9484 2515.18 56.4725 2517.95 53.7118C2520.71 50.9512 2525.19 50.9512 2527.95 53.7118L2604.67 130.357C2607.43 133.118 2607.43 137.594 2604.67 140.354C2601.9 143.115 2597.42 143.115 2594.66 140.354L2517.95 63.709Z" fill="black"/>
<path d="M2594.66 101.351C2597.42 98.5906 2601.9 98.5906 2604.67 101.351C2607.43 104.112 2607.43 108.588 2604.67 111.348L2527.95 187.994C2525.19 190.754 2520.71 190.754 2517.95 187.994C2515.18 185.233 2515.18 180.757 2517.95 177.996L2594.66 101.351Z" fill="black"/>
<path d="M2517.95 111.348C2515.18 108.588 2515.18 104.112 2517.95 101.351C2520.71 98.5906 2525.19 98.5906 2527.95 101.351L2604.67 177.996C2607.43 180.757 2607.43 185.233 2604.67 187.994C2601.9 190.754 2597.42 190.754 2594.66 187.994L2517.95 111.348Z" fill="black"/>
<path d="M2594.66 150.352C2597.42 147.591 2601.9 147.591 2604.67 150.352C2607.43 153.112 2607.43 157.588 2604.67 160.349L2527.95 236.994C2525.19 239.755 2520.71 239.755 2517.95 236.994C2515.18 234.233 2515.18 229.757 2517.95 226.997L2594.66 150.352Z" fill="black"/>
<path d="M2517.95 160.349C2515.18 157.588 2515.18 153.112 2517.95 150.352C2520.71 147.591 2525.19 147.591 2527.95 150.352L2604.67 226.997C2607.43 229.757 2607.43 234.233 2604.67 236.994C2601.9 239.755 2597.42 239.755 2594.66 236.994L2517.95 160.349Z" fill="black"/>
<path d="M2594.66 199.352C2597.42 196.591 2601.9 196.591 2604.67 199.352C2607.43 202.113 2607.43 206.588 2604.67 209.349L2527.95 285.994C2525.19 288.755 2520.71 288.755 2517.95 285.994C2515.18 283.234 2515.18 278.758 2517.95 275.997L2594.66 199.352Z" fill="black"/>
<path d="M2517.95 209.349C2515.18 206.588 2515.18 202.113 2517.95 199.352C2520.71 196.591 2525.19 196.591 2527.95 199.352L2604.67 275.997C2607.43 278.758 2607.43 283.234 2604.67 285.994C2601.9 288.755 2597.42 288.755 2594.66 285.994L2517.95 209.349Z" fill="black"/>
<path d="M2594.66 246.991C2597.42 244.23 2601.9 244.23 2604.67 246.991C2607.43 249.752 2607.43 254.227 2604.67 256.988L2527.95 333.633C2525.19 336.394 2520.71 336.394 2517.95 333.633C2515.18 330.873 2515.18 326.397 2517.95 323.636L2594.66 246.991Z" fill="black"/>
<path d="M2517.95 256.988C2515.18 254.227 2515.18 249.752 2517.95 246.991C2520.71 244.23 2525.19 244.23 2527.95 246.991L2604.67 323.636C2607.43 326.397 2607.43 330.873 2604.67 333.633C2601.9 336.394 2597.42 336.394 2594.66 333.633L2517.95 256.988Z" fill="black"/>
<path d="M2594.66 294.63C2597.42 291.87 2601.9 291.87 2604.67 294.63C2607.43 297.391 2607.43 301.867 2604.67 304.628L2527.95 381.273C2525.19 384.033 2520.71 384.033 2517.95 381.273C2515.18 378.512 2515.18 374.036 2517.95 371.275L2594.66 294.63Z" fill="black"/>
<path d="M2517.95 304.628C2515.18 301.867 2515.18 297.391 2517.95 294.63C2520.71 291.87 2525.19 291.87 2527.95 294.63L2604.67 371.275C2607.43 374.036 2607.43 378.512 2604.67 381.273C2601.9 384.033 2597.42 384.033 2594.66 381.273L2517.95 304.628Z" fill="black"/>
<path d="M2594.66 342.269C2597.42 339.509 2601.9 339.509 2604.67 342.269C2607.43 345.03 2607.43 349.506 2604.67 352.267L2527.95 428.912C2525.19 431.672 2520.71 431.672 2517.95 428.912C2515.18 426.151 2515.18 421.675 2517.95 418.914L2594.66 342.269Z" fill="black"/>
<path d="M2517.95 352.267C2515.18 349.506 2515.18 345.03 2517.95 342.269C2520.71 339.509 2525.19 339.509 2527.95 342.269L2604.67 418.914C2607.43 421.675 2607.43 426.151 2604.67 428.912C2601.9 431.672 2597.42 431.672 2594.66 428.912L2517.95 352.267Z" fill="black"/>
<path d="M2519.1 546.701C2516.34 543.94 2516.34 539.465 2519.1 536.704C2521.87 533.943 2526.35 533.943 2529.11 536.704L2562.46 570.028L2595.82 536.704C2598.58 533.943 2603.06 533.943 2605.82 536.704C2608.59 539.465 2608.59 543.94 2605.82 546.701L2572.94 579.55H2551.98L2519.1 546.701Z" fill="black"/>
<path d="M2515.02 35.2847C2512.25 38.0453 2512.25 42.5212 2515.02 45.2818C2517.78 48.0425 2522.26 48.0425 2525.02 45.2818L2558.38 11.9578L2591.73 45.2818C2594.49 48.0425 2598.97 48.0425 2601.74 45.2818C2604.5 42.5212 2604.5 38.0453 2601.74 35.2846L2568.86 2.43534H2547.89L2515.02 35.2847Z" fill="black"/>
<path d="M2349.44 391.27C2352.2 388.509 2356.68 388.509 2359.45 391.27C2362.21 394.03 2362.21 398.506 2359.45 401.267L2282.73 477.912C2279.97 480.673 2275.49 480.673 2272.73 477.912C2269.96 475.151 2269.96 470.675 2272.73 467.915L2349.44 391.27Z" fill="black"/>
<path d="M2272.73 401.267C2269.96 398.506 2269.96 394.03 2272.73 391.27C2275.49 388.509 2279.97 388.509 2282.73 391.27L2359.45 467.915C2362.21 470.675 2362.21 475.151 2359.45 477.912C2356.68 480.673 2352.2 480.673 2349.44 477.912L2272.73 401.267Z" fill="black"/>
<path d="M2349.44 440.27C2352.2 437.509 2356.68 437.509 2359.45 440.27C2362.21 443.031 2362.21 447.507 2359.45 450.267L2282.73 526.912C2279.97 529.673 2275.49 529.673 2272.73 526.912C2269.96 524.152 2269.96 519.676 2272.73 516.915L2349.44 440.27Z" fill="black"/>
<path d="M2272.73 450.267C2269.96 447.507 2269.96 443.031 2272.73 440.27C2275.49 437.509 2279.97 437.509 2282.73 440.27L2359.45 516.915C2362.21 519.676 2362.21 524.152 2359.45 526.912C2356.68 529.673 2352.2 529.673 2349.44 526.912L2272.73 450.267Z" fill="black"/>
<path d="M2349.44 487.909C2352.2 485.149 2356.68 485.149 2359.45 487.909C2362.21 490.67 2362.21 495.146 2359.45 497.907L2282.73 574.552C2279.97 577.312 2275.49 577.312 2272.73 574.552C2269.96 571.791 2269.96 567.315 2272.73 564.555L2349.44 487.909Z" fill="black"/>
<path d="M2272.73 497.907C2269.96 495.146 2269.96 490.67 2272.73 487.909C2275.49 485.149 2279.97 485.149 2282.73 487.909L2359.45 564.555C2362.21 567.315 2362.21 571.791 2359.45 574.552C2356.68 577.312 2352.2 577.312 2349.44 574.552L2272.73 497.907Z" fill="black"/>
<path d="M2349.44 6.07284C2352.2 3.31219 2356.68 3.31219 2359.45 6.07284C2362.21 8.83349 2362.21 13.3094 2359.45 16.07L2282.73 92.7152C2279.97 95.4758 2275.49 95.4758 2272.73 92.7152C2269.96 89.9545 2269.96 85.4787 2272.73 82.718L2349.44 6.07284Z" fill="black"/>
<path d="M2272.73 16.07C2269.96 13.3094 2269.96 8.83348 2272.73 6.07283C2275.49 3.31218 2279.97 3.31218 2282.73 6.07283L2359.45 82.718C2362.21 85.4786 2362.21 89.9546 2359.45 92.7152C2356.68 95.4759 2352.2 95.4758 2349.44 92.7152L2272.73 16.07Z" fill="black"/>
<path d="M2349.44 53.7118C2352.2 50.9512 2356.68 50.9512 2359.45 53.7118C2362.21 56.4725 2362.21 60.9484 2359.45 63.709L2282.73 140.354C2279.97 143.115 2275.49 143.115 2272.73 140.354C2269.96 137.594 2269.96 133.118 2272.73 130.357L2349.44 53.7118Z" fill="black"/>
<path d="M2272.73 63.709C2269.96 60.9484 2269.96 56.4725 2272.73 53.7118C2275.49 50.9512 2279.97 50.9512 2282.73 53.7118L2359.45 130.357C2362.21 133.118 2362.21 137.594 2359.45 140.354C2356.68 143.115 2352.2 143.115 2349.44 140.354L2272.73 63.709Z" fill="black"/>
<path d="M2349.44 101.351C2352.2 98.5906 2356.68 98.5906 2359.45 101.351C2362.21 104.112 2362.21 108.588 2359.45 111.348L2282.73 187.994C2279.97 190.754 2275.49 190.754 2272.73 187.994C2269.96 185.233 2269.96 180.757 2272.73 177.996L2349.44 101.351Z" fill="black"/>
<path d="M2272.73 111.348C2269.96 108.588 2269.96 104.112 2272.73 101.351C2275.49 98.5906 2279.97 98.5906 2282.73 101.351L2359.45 177.996C2362.21 180.757 2362.21 185.233 2359.45 187.994C2356.68 190.754 2352.2 190.754 2349.44 187.994L2272.73 111.348Z" fill="black"/>
<path d="M2349.44 150.352C2352.2 147.591 2356.68 147.591 2359.45 150.352C2362.21 153.112 2362.21 157.588 2359.45 160.349L2282.73 236.994C2279.97 239.755 2275.49 239.755 2272.73 236.994C2269.96 234.233 2269.96 229.757 2272.73 226.997L2349.44 150.352Z" fill="black"/>
<path d="M2272.73 160.349C2269.96 157.588 2269.96 153.112 2272.73 150.352C2275.49 147.591 2279.97 147.591 2282.73 150.352L2359.45 226.997C2362.21 229.757 2362.21 234.233 2359.45 236.994C2356.68 239.755 2352.2 239.755 2349.44 236.994L2272.73 160.349Z" fill="black"/>
<path d="M2349.44 199.352C2352.2 196.591 2356.68 196.591 2359.45 199.352C2362.21 202.113 2362.21 206.588 2359.45 209.349L2282.73 285.994C2279.97 288.755 2275.49 288.755 2272.73 285.994C2269.96 283.234 2269.96 278.758 2272.73 275.997L2349.44 199.352Z" fill="black"/>
<path d="M2272.73 209.349C2269.96 206.588 2269.96 202.113 2272.73 199.352C2275.49 196.591 2279.97 196.591 2282.73 199.352L2359.45 275.997C2362.21 278.758 2362.21 283.234 2359.45 285.994C2356.68 288.755 2352.2 288.755 2349.44 285.994L2272.73 209.349Z" fill="black"/>
<path d="M2349.44 246.991C2352.2 244.23 2356.68 244.23 2359.45 246.991C2362.21 249.752 2362.21 254.227 2359.45 256.988L2282.73 333.633C2279.97 336.394 2275.49 336.394 2272.73 333.633C2269.96 330.873 2269.96 326.397 2272.73 323.636L2349.44 246.991Z" fill="black"/>
<path d="M2272.73 256.988C2269.96 254.227 2269.96 249.752 2272.73 246.991C2275.49 244.23 2279.97 244.23 2282.73 246.991L2359.45 323.636C2362.21 326.397 2362.21 330.873 2359.45 333.633C2356.68 336.394 2352.2 336.394 2349.44 333.633L2272.73 256.988Z" fill="black"/>
<path d="M2349.44 294.63C2352.2 291.87 2356.68 291.87 2359.45 294.63C2362.21 297.391 2362.21 301.867 2359.45 304.628L2282.73 381.273C2279.97 384.033 2275.49 384.033 2272.73 381.273C2269.96 378.512 2269.96 374.036 2272.73 371.275L2349.44 294.63Z" fill="black"/>
<path d="M2272.73 304.628C2269.96 301.867 2269.96 297.391 2272.73 294.63C2275.49 291.87 2279.97 291.87 2282.73 294.63L2359.45 371.275C2362.21 374.036 2362.21 378.512 2359.45 381.273C2356.68 384.033 2352.2 384.033 2349.44 381.273L2272.73 304.628Z" fill="black"/>
<path d="M2349.44 342.269C2352.2 339.509 2356.68 339.509 2359.45 342.269C2362.21 345.03 2362.21 349.506 2359.45 352.267L2282.73 428.912C2279.97 431.672 2275.49 431.672 2272.73 428.912C2269.96 426.151 2269.96 421.675 2272.73 418.914L2349.44 342.269Z" fill="black"/>
<path d="M2272.73 352.267C2269.96 349.506 2269.96 345.03 2272.73 342.269C2275.49 339.509 2279.97 339.509 2282.73 342.269L2359.45 418.914C2362.21 421.675 2362.21 426.151 2359.45 428.912C2356.68 431.672 2352.2 431.672 2349.44 428.912L2272.73 352.267Z" fill="black"/>
<path d="M2272.52 548.062C2269.76 545.301 2269.76 540.825 2272.52 538.065C2275.28 535.304 2279.76 535.304 2282.53 538.065L2315.88 571.389L2349.23 538.065C2352 535.304 2356.48 535.304 2359.24 538.065C2362 540.825 2362 545.301 2359.24 548.062L2326.36 580.911H2305.4L2272.52 548.062Z" fill="black"/>
<path d="M2272.52 35.2847C2269.76 38.0453 2269.76 42.5212 2272.52 45.2818C2275.28 48.0425 2279.76 48.0425 2282.53 45.2818L2315.88 11.9578L2349.23 45.2818C2352 48.0425 2356.48 48.0425 2359.24 45.2818C2362 42.5212 2362 38.0453 2359.24 35.2846L2326.36 2.43534H2305.4L2272.52 35.2847Z" fill="black"/>
<path d="M1957.01 390.918C1959.78 388.157 1964.26 388.157 1967.02 390.918C1969.78 393.679 1969.78 398.154 1967.02 400.915L1890.3 477.56C1887.54 480.321 1883.06 480.321 1880.3 477.56C1877.54 474.8 1877.54 470.324 1880.3 467.563L1957.01 390.918Z" fill="black"/>
<path d="M1880.3 400.915C1877.54 398.154 1877.54 393.679 1880.3 390.918C1883.06 388.157 1887.54 388.157 1890.3 390.918L1967.02 467.563C1969.78 470.324 1969.78 474.8 1967.02 477.56C1964.26 480.321 1959.78 480.321 1957.01 477.56L1880.3 400.915Z" fill="black"/>
<path d="M1957.01 439.918C1959.78 437.158 1964.26 437.158 1967.02 439.918C1969.78 442.679 1969.78 447.155 1967.02 449.915L1890.3 526.561C1887.54 529.321 1883.06 529.321 1880.3 526.561C1877.54 523.8 1877.54 519.324 1880.3 516.563L1957.01 439.918Z" fill="black"/>
<path d="M1880.3 449.915C1877.54 447.155 1877.54 442.679 1880.3 439.918C1883.06 437.158 1887.54 437.158 1890.3 439.918L1967.02 516.563C1969.78 519.324 1969.78 523.8 1967.02 526.561C1964.26 529.321 1959.78 529.321 1957.01 526.561L1880.3 449.915Z" fill="black"/>
<path d="M1957.01 487.557C1959.78 484.797 1964.26 484.797 1967.02 487.557C1969.78 490.318 1969.78 494.794 1967.02 497.555L1890.3 574.2C1887.54 576.96 1883.06 576.96 1880.3 574.2C1877.54 571.439 1877.54 566.963 1880.3 564.203L1957.01 487.557Z" fill="black"/>
<path d="M1880.3 497.555C1877.54 494.794 1877.54 490.318 1880.3 487.557C1883.06 484.797 1887.54 484.797 1890.3 487.557L1967.02 564.203C1969.78 566.963 1969.78 571.439 1967.02 574.2C1964.26 576.96 1959.78 576.96 1957.01 574.2L1880.3 497.555Z" fill="black"/>
<path d="M1957.01 5.72072C1959.78 2.96007 1964.26 2.96007 1967.02 5.72072C1969.78 8.48137 1969.78 12.9573 1967.02 15.7179L1890.3 92.3631C1887.54 95.1237 1883.06 95.1237 1880.3 92.3631C1877.54 89.6024 1877.54 85.1265 1880.3 82.3659L1957.01 5.72072Z" fill="black"/>
<path d="M1880.3 15.7179C1877.54 12.9573 1877.54 8.48136 1880.3 5.72071C1883.06 2.96006 1887.54 2.96006 1890.3 5.72071L1967.02 82.3659C1969.78 85.1265 1969.78 89.6024 1967.02 92.3631C1964.26 95.1237 1959.78 95.1237 1957.01 92.3631L1880.3 15.7179Z" fill="black"/>
<path d="M1957.01 53.3599C1959.78 50.5993 1964.26 50.5993 1967.02 53.3599C1969.78 56.1206 1969.78 60.5965 1967.02 63.3571L1890.3 140.002C1887.54 142.763 1883.06 142.763 1880.3 140.002C1877.54 137.242 1877.54 132.766 1880.3 130.005L1957.01 53.3599Z" fill="black"/>
<path d="M1880.3 63.3571C1877.54 60.5965 1877.54 56.1206 1880.3 53.3599C1883.06 50.5993 1887.54 50.5993 1890.3 53.3599L1967.02 130.005C1969.78 132.766 1969.78 137.242 1967.02 140.002C1964.26 142.763 1959.78 142.763 1957.01 140.002L1880.3 63.3571Z" fill="black"/>
<path d="M1957.01 100.999C1959.78 98.2385 1964.26 98.2385 1967.02 100.999C1969.78 103.76 1969.78 108.236 1967.02 110.996L1890.3 187.642C1887.54 190.402 1883.06 190.402 1880.3 187.642C1877.54 184.881 1877.54 180.405 1880.3 177.644L1957.01 100.999Z" fill="black"/>
<path d="M1880.3 110.996C1877.54 108.236 1877.54 103.76 1880.3 100.999C1883.06 98.2385 1887.54 98.2385 1890.3 100.999L1967.02 177.644C1969.78 180.405 1969.78 184.881 1967.02 187.642C1964.26 190.402 1959.78 190.402 1957.01 187.642L1880.3 110.996Z" fill="black"/>
<path d="M1957.01 150C1959.78 147.239 1964.26 147.239 1967.02 150C1969.78 152.76 1969.78 157.236 1967.02 159.997L1890.3 236.642C1887.54 239.403 1883.06 239.403 1880.3 236.642C1877.54 233.881 1877.54 229.405 1880.3 226.645L1957.01 150Z" fill="black"/>
<path d="M1880.3 159.997C1877.54 157.236 1877.54 152.76 1880.3 150C1883.06 147.239 1887.54 147.239 1890.3 150L1967.02 226.645C1969.78 229.405 1969.78 233.881 1967.02 236.642C1964.26 239.403 1959.78 239.403 1957.01 236.642L1880.3 159.997Z" fill="black"/>
<path d="M1957.01 199C1959.78 196.239 1964.26 196.239 1967.02 199C1969.78 201.761 1969.78 206.236 1967.02 208.997L1890.3 285.642C1887.54 288.403 1883.06 288.403 1880.3 285.642C1877.54 282.882 1877.54 278.406 1880.3 275.645L1957.01 199Z" fill="black"/>
<path d="M1880.3 208.997C1877.54 206.236 1877.54 201.761 1880.3 199C1883.06 196.239 1887.54 196.239 1890.3 199L1967.02 275.645C1969.78 278.406 1969.78 282.882 1967.02 285.642C1964.26 288.403 1959.78 288.403 1957.01 285.642L1880.3 208.997Z" fill="black"/>
<path d="M1957.01 246.639C1959.78 243.878 1964.26 243.878 1967.02 246.639C1969.78 249.4 1969.78 253.876 1967.02 256.636L1890.3 333.281C1887.54 336.042 1883.06 336.042 1880.3 333.281C1877.54 330.521 1877.54 326.045 1880.3 323.284L1957.01 246.639Z" fill="black"/>
<path d="M1880.3 256.636C1877.54 253.876 1877.54 249.4 1880.3 246.639C1883.06 243.878 1887.54 243.878 1890.3 246.639L1967.02 323.284C1969.78 326.045 1969.78 330.521 1967.02 333.281C1964.26 336.042 1959.78 336.042 1957.01 333.281L1880.3 256.636Z" fill="black"/>
<path d="M1957.01 294.278C1959.78 291.518 1964.26 291.518 1967.02 294.278C1969.78 297.039 1969.78 301.515 1967.02 304.276L1890.3 380.921C1887.54 383.681 1883.06 383.681 1880.3 380.921C1877.54 378.16 1877.54 373.684 1880.3 370.923L1957.01 294.278Z" fill="black"/>
<path d="M1880.3 304.276C1877.54 301.515 1877.54 297.039 1880.3 294.278C1883.06 291.518 1887.54 291.518 1890.3 294.278L1967.02 370.923C1969.78 373.684 1969.78 378.16 1967.02 380.921C1964.26 383.681 1959.78 383.681 1957.01 380.921L1880.3 304.276Z" fill="black"/>
<path d="M1957.01 341.918C1959.78 339.157 1964.26 339.157 1967.02 341.918C1969.78 344.678 1969.78 349.154 1967.02 351.915L1890.3 428.56C1887.54 431.321 1883.06 431.321 1880.3 428.56C1877.54 425.799 1877.54 421.323 1880.3 418.563L1957.01 341.918Z" fill="black"/>
<path d="M1880.3 351.915C1877.54 349.154 1877.54 344.678 1880.3 341.918C1883.06 339.157 1887.54 339.157 1890.3 341.918L1967.02 418.563C1969.78 421.323 1969.78 425.799 1967.02 428.56C1964.26 431.321 1959.78 431.321 1957.01 428.56L1880.3 351.915Z" fill="black"/>
<path d="M1880.09 547.71C1877.33 544.95 1877.33 540.474 1880.09 537.713C1882.86 534.952 1887.34 534.952 1890.1 537.713L1923.45 571.037L1956.81 537.713C1959.57 534.952 1964.05 534.952 1966.81 537.713C1969.58 540.474 1969.58 544.95 1966.81 547.71L1933.93 580.56H1912.97L1880.09 547.71Z" fill="black"/>
<path d="M1880.09 34.9325C1877.33 37.6932 1877.33 42.1691 1880.09 44.9297C1882.86 47.6904 1887.34 47.6904 1890.1 44.9297L1923.45 11.6057L1956.81 44.9297C1959.57 47.6904 1964.05 47.6904 1966.81 44.9297C1969.58 42.1691 1969.58 37.6932 1966.81 34.9325L1933.93 2.08323H1912.97L1880.09 34.9325Z" fill="black"/>
<path d="M1022.45 395.001C1025.21 392.241 1029.69 392.241 1032.46 395.001C1035.22 397.762 1035.22 402.238 1032.46 404.998L955.744 481.644C952.981 484.404 948.501 484.404 945.738 481.644C942.975 478.883 942.975 474.407 945.738 471.646L1022.45 395.001Z" fill="black"/>
<path d="M945.738 404.998C942.975 402.238 942.975 397.762 945.738 395.001C948.501 392.241 952.981 392.241 955.744 395.001L1032.46 471.646C1035.22 474.407 1035.22 478.883 1032.46 481.644C1029.69 484.404 1025.21 484.404 1022.45 481.644L945.738 404.998Z" fill="black"/>
<path d="M1022.45 444.002C1025.21 441.241 1029.69 441.241 1032.46 444.002C1035.22 446.762 1035.22 451.238 1032.46 453.999L955.744 530.644C952.981 533.405 948.501 533.405 945.738 530.644C942.975 527.883 942.975 523.407 945.738 520.647L1022.45 444.002Z" fill="black"/>
<path d="M945.738 453.999C942.975 451.238 942.975 446.762 945.738 444.002C948.501 441.241 952.981 441.241 955.744 444.002L1032.46 520.647C1035.22 523.407 1035.22 527.883 1032.46 530.644C1029.69 533.405 1025.21 533.405 1022.45 530.644L945.738 453.999Z" fill="black"/>
<path d="M1022.45 491.641C1025.21 488.88 1029.69 488.88 1032.46 491.641C1035.22 494.401 1035.22 498.877 1032.46 501.638L955.744 578.283C952.981 581.044 948.501 581.044 945.738 578.283C942.975 575.523 942.975 571.047 945.738 568.286L1022.45 491.641Z" fill="black"/>
<path d="M945.738 501.638C942.975 498.877 942.975 494.401 945.738 491.641C948.501 488.88 952.981 488.88 955.744 491.641L1032.46 568.286C1035.22 571.047 1035.22 575.523 1032.46 578.283C1029.69 581.044 1025.21 581.044 1022.45 578.283L945.738 501.638Z" fill="black"/>
<path d="M1022.45 9.80408C1025.21 7.04343 1029.69 7.04343 1032.46 9.80408C1035.22 12.5647 1035.22 17.0406 1032.46 19.8013L955.744 96.4464C952.981 99.2071 948.501 99.2071 945.738 96.4464C942.975 93.6858 942.975 89.2099 945.738 86.4492L1022.45 9.80408Z" fill="black"/>
<path d="M945.738 19.8013C942.975 17.0406 942.975 12.5647 945.738 9.80407C948.501 7.04342 952.981 7.04342 955.744 9.80407L1032.46 86.4492C1035.22 89.2099 1035.22 93.6858 1032.46 96.4464C1029.69 99.2071 1025.21 99.2071 1022.45 96.4464L945.738 19.8013Z" fill="black"/>
<path d="M1022.45 57.4433C1025.21 54.6827 1029.69 54.6827 1032.46 57.4433C1035.22 60.204 1035.22 64.6798 1032.46 67.4405L955.744 144.086C952.981 146.846 948.501 146.846 945.738 144.086C942.975 141.325 942.975 136.849 945.738 134.088L1022.45 57.4433Z" fill="black"/>
<path d="M945.738 67.4405C942.975 64.6798 942.975 60.2039 945.738 57.4433C948.501 54.6826 952.981 54.6826 955.744 57.4433L1032.46 134.088C1035.22 136.849 1035.22 141.325 1032.46 144.086C1029.69 146.846 1025.21 146.846 1022.45 144.086L945.738 67.4405Z" fill="black"/>
<path d="M1022.45 105.083C1025.21 102.322 1029.69 102.322 1032.46 105.083C1035.22 107.843 1035.22 112.319 1032.46 115.08L955.744 191.725C952.981 194.486 948.501 194.486 945.738 191.725C942.975 188.964 942.975 184.488 945.738 181.728L1022.45 105.083Z" fill="black"/>
<path d="M945.738 115.08C942.975 112.319 942.975 107.843 945.738 105.083C948.501 102.322 952.981 102.322 955.744 105.083L1032.46 181.728C1035.22 184.488 1035.22 188.964 1032.46 191.725C1029.69 194.486 1025.21 194.486 1022.45 191.725L945.738 115.08Z" fill="black"/>
<path d="M1022.45 154.083C1025.21 151.322 1029.69 151.322 1032.46 154.083C1035.22 156.844 1035.22 161.319 1032.46 164.08L955.744 240.725C952.981 243.486 948.501 243.486 945.738 240.725C942.975 237.965 942.975 233.489 945.738 230.728L1022.45 154.083Z" fill="black"/>
<path d="M945.738 164.08C942.975 161.319 942.975 156.844 945.738 154.083C948.501 151.322 952.981 151.322 955.744 154.083L1032.46 230.728C1035.22 233.489 1035.22 237.965 1032.46 240.725C1029.69 243.486 1025.21 243.486 1022.45 240.725L945.738 164.08Z" fill="black"/>
<path d="M1022.45 203.083C1025.21 200.323 1029.69 200.323 1032.46 203.083C1035.22 205.844 1035.22 210.32 1032.46 213.08L955.744 289.726C952.981 292.486 948.501 292.486 945.738 289.726C942.975 286.965 942.975 282.489 945.738 279.728L1022.45 203.083Z" fill="black"/>
<path d="M945.738 213.08C942.975 210.32 942.975 205.844 945.738 203.083C948.501 200.323 952.981 200.323 955.744 203.083L1032.46 279.728C1035.22 282.489 1035.22 286.965 1032.46 289.726C1029.69 292.486 1025.21 292.486 1022.45 289.726L945.738 213.08Z" fill="black"/>
<path d="M1022.45 250.722C1025.21 247.962 1029.69 247.962 1032.46 250.722C1035.22 253.483 1035.22 257.959 1032.46 260.72L955.744 337.365C952.981 340.125 948.501 340.125 945.738 337.365C942.975 334.604 942.975 330.128 945.738 327.368L1022.45 250.722Z" fill="black"/>
<path d="M945.738 260.72C942.975 257.959 942.975 253.483 945.738 250.722C948.501 247.962 952.981 247.962 955.744 250.722L1032.46 327.368C1035.22 330.128 1035.22 334.604 1032.46 337.365C1029.69 340.125 1025.21 340.125 1022.45 337.365L945.738 260.72Z" fill="black"/>
<path d="M1022.45 298.362C1025.21 295.601 1029.69 295.601 1032.46 298.362C1035.22 301.122 1035.22 305.598 1032.46 308.359L955.744 385.004C952.981 387.765 948.501 387.765 945.738 385.004C942.975 382.243 942.975 377.767 945.738 375.007L1022.45 298.362Z" fill="black"/>
<path d="M945.738 308.359C942.975 305.598 942.975 301.122 945.738 298.362C948.501 295.601 952.981 295.601 955.744 298.362L1032.46 375.007C1035.22 377.767 1035.22 382.243 1032.46 385.004C1029.69 387.765 1025.21 387.765 1022.45 385.004L945.738 308.359Z" fill="black"/>
<path d="M1022.45 346.001C1025.21 343.24 1029.69 343.24 1032.46 346.001C1035.22 348.762 1035.22 353.237 1032.46 355.998L955.744 432.643C952.981 435.404 948.501 435.404 945.738 432.643C942.975 429.883 942.975 425.407 945.738 422.646L1022.45 346.001Z" fill="black"/>
<path d="M945.738 355.998C942.975 353.237 942.975 348.762 945.738 346.001C948.501 343.24 952.981 343.24 955.744 346.001L1032.46 422.646C1035.22 425.407 1035.22 429.883 1032.46 432.643C1029.69 435.404 1025.21 435.404 1022.45 432.643L945.738 355.998Z" fill="black"/>
<path d="M945.532 39.0159C942.769 41.7765 942.769 46.2524 945.532 49.0131C948.295 51.7737 952.775 51.7737 955.538 49.0131L988.892 15.6891L1022.25 49.0131C1025.01 51.7737 1029.49 51.7737 1032.25 49.0131C1035.01 46.2524 1035.01 41.7765 1032.25 39.0159L999.373 6.16658H978.41L945.532 39.0159Z" fill="black"/>
<path d="M476.156 396.362C478.919 393.602 483.399 393.602 486.162 396.362C488.925 399.123 488.925 403.599 486.162 406.36L409.448 483.005C406.685 485.765 402.205 485.765 399.442 483.005C396.679 480.244 396.679 475.768 399.442 473.008L476.156 396.362Z" fill="black"/>
<path d="M399.442 406.36C396.679 403.599 396.679 399.123 399.442 396.362C402.205 393.602 406.685 393.602 409.448 396.362L486.162 473.008C488.925 475.768 488.925 480.244 486.162 483.005C483.398 485.765 478.919 485.765 476.155 483.005L399.442 406.36Z" fill="black"/>
<path d="M525.2 9.80408C527.963 7.04343 532.443 7.04343 535.206 9.80408C537.969 12.5647 537.969 17.0406 535.206 19.8013L458.492 96.4464C455.729 99.2071 451.249 99.2071 448.486 96.4464C445.723 93.6858 445.723 89.2099 448.486 86.4492L525.2 9.80408Z" fill="black"/>
<path d="M448.486 19.8013C445.723 17.0406 445.723 12.5647 448.486 9.80407C451.249 7.04342 455.729 7.04342 458.492 9.80408L535.206 86.4492C537.969 89.2099 537.969 93.6858 535.206 96.4464C532.443 99.2071 527.963 99.2071 525.2 96.4464L448.486 19.8013Z" fill="black"/>
<path d="M574.244 9.80408C577.007 7.04343 581.487 7.04343 584.25 9.80408C587.013 12.5647 587.013 17.0406 584.25 19.8013L507.536 96.4464C504.773 99.2071 500.293 99.2071 497.53 96.4464C494.767 93.6858 494.767 89.2099 497.53 86.4492L574.244 9.80408Z" fill="black"/>
<path d="M497.53 19.8013C494.767 17.0406 494.767 12.5647 497.53 9.80407C500.293 7.04342 504.773 7.04342 507.536 9.80408L584.25 86.4492C587.013 89.2099 587.013 93.6858 584.25 96.4464C581.487 99.2071 577.007 99.2071 574.244 96.4464L497.53 19.8013Z" fill="black"/>
<path d="M624.65 9.80408C627.413 7.04343 631.893 7.04343 634.656 9.80408C637.419 12.5647 637.419 17.0406 634.656 19.8013L557.943 96.4464C555.18 99.2071 550.7 99.2071 547.937 96.4464C545.173 93.6858 545.173 89.2099 547.937 86.4492L624.65 9.80408Z" fill="black"/>
<path d="M547.936 19.8013C545.173 17.0406 545.173 12.5647 547.936 9.80407C550.7 7.04342 555.179 7.04342 557.943 9.80407L634.656 86.4492C637.419 89.2099 637.419 93.6858 634.656 96.4464C631.893 99.2071 627.413 99.2071 624.65 96.4464L547.936 19.8013Z" fill="black"/>
<path d="M673.694 9.80408C676.457 7.04343 680.937 7.04343 683.7 9.80408C686.463 12.5647 686.463 17.0406 683.7 19.8013L606.987 96.4464C604.224 99.2071 599.744 99.2071 596.981 96.4464C594.217 93.6858 594.217 89.2099 596.981 86.4492L673.694 9.80408Z" fill="black"/>
<path d="M596.98 19.8013C594.217 17.0406 594.217 12.5647 596.98 9.80407C599.744 7.04342 604.223 7.04342 606.987 9.80407L683.7 86.4492C686.463 89.2099 686.463 93.6858 683.7 96.4464C680.937 99.2071 676.457 99.2071 673.694 96.4464L596.98 19.8013Z" fill="black"/>
<path d="M721.376 9.80408C724.139 7.04343 728.619 7.04343 731.382 9.80408C734.145 12.5647 734.145 17.0406 731.382 19.8013L654.668 96.4464C651.905 99.2071 647.425 99.2071 644.662 96.4464C641.899 93.6858 641.899 89.2099 644.662 86.4492L721.376 9.80408Z" fill="black"/>
<path d="M644.662 19.8013C641.899 17.0406 641.899 12.5647 644.662 9.80407C647.425 7.04342 651.905 7.04342 654.668 9.80407L731.382 86.4492C734.145 89.2099 734.145 93.6858 731.382 96.4464C728.619 99.2071 724.139 99.2071 721.376 96.4464L644.662 19.8013Z" fill="black"/>
<path d="M476.156 445.363C478.919 442.602 483.399 442.602 486.162 445.363C488.925 448.123 488.925 452.599 486.162 455.36L409.448 532.005C406.685 534.766 402.205 534.766 399.442 532.005C396.679 529.244 396.679 524.769 399.442 522.008L476.156 445.363Z" fill="black"/>
<path d="M399.442 455.36C396.679 452.599 396.679 448.123 399.442 445.363C402.205 442.602 406.685 442.602 409.448 445.363L486.162 522.008C488.925 524.769 488.925 529.244 486.162 532.005C483.398 534.766 478.919 534.766 476.155 532.005L399.442 455.36Z" fill="black"/>
<path d="M476.156 493.002C478.919 490.241 483.399 490.241 486.162 493.002C488.925 495.763 488.925 500.238 486.162 502.999L409.448 579.644C406.685 582.405 402.205 582.405 399.442 579.644C396.679 576.884 396.679 572.408 399.442 569.647L476.156 493.002Z" fill="black"/>
<path d="M399.442 502.999C396.679 500.238 396.679 495.763 399.442 493.002C402.205 490.241 406.685 490.241 409.448 493.002L486.162 569.647C488.925 572.408 488.925 576.884 486.162 579.644C483.398 582.405 478.919 582.405 476.155 579.644L399.442 502.999Z" fill="black"/>
<path d="M721.376 57.4433C724.139 54.6827 728.619 54.6827 731.382 57.4433C734.145 60.204 734.145 64.6798 731.382 67.4405L654.668 144.086C651.905 146.846 647.425 146.846 644.662 144.086C641.899 141.325 641.899 136.849 644.662 134.088L721.376 57.4433Z" fill="black"/>
<path d="M644.662 67.4405C641.899 64.6798 641.899 60.2039 644.662 57.4433C647.425 54.6826 651.905 54.6826 654.668 57.4433L731.382 134.088C734.145 136.849 734.145 141.325 731.382 144.086C728.619 146.846 724.139 146.846 721.376 144.086L644.662 67.4405Z" fill="black"/>
<path d="M721.376 106.444C724.139 103.683 728.619 103.683 731.382 106.444C734.145 109.204 734.145 113.68 731.382 116.441L654.668 193.086C651.905 195.847 647.425 195.847 644.662 193.086C641.899 190.325 641.899 185.849 644.662 183.089L721.376 106.444Z" fill="black"/>
<path d="M644.662 116.441C641.899 113.68 641.899 109.204 644.662 106.444C647.425 103.683 651.905 103.683 654.668 106.444L731.382 183.089C734.145 185.849 734.145 190.325 731.382 193.086C728.619 195.847 724.139 195.847 721.376 193.086L644.662 116.441Z" fill="black"/>
<path d="M721.376 154.083C724.139 151.322 728.619 151.322 731.382 154.083C734.145 156.844 734.145 161.319 731.382 164.08L654.668 240.725C651.905 243.486 647.425 243.486 644.662 240.725C641.899 237.965 641.899 233.489 644.662 230.728L721.376 154.083Z" fill="black"/>
<path d="M644.662 164.08C641.899 161.319 641.899 156.844 644.662 154.083C647.425 151.322 651.905 151.322 654.668 154.083L731.382 230.728C734.145 233.489 734.145 237.965 731.382 240.725C728.619 243.486 724.139 243.486 721.376 240.725L644.662 164.08Z" fill="black"/>
<path d="M721.376 203.083C724.139 200.323 728.619 200.323 731.382 203.083C734.145 205.844 734.145 210.32 731.382 213.08L654.668 289.726C651.905 292.486 647.425 292.486 644.662 289.726C641.899 286.965 641.899 282.489 644.662 279.728L721.376 203.083Z" fill="black"/>
<path d="M644.662 213.08C641.899 210.32 641.899 205.844 644.662 203.083C647.425 200.323 651.905 200.323 654.668 203.083L731.382 279.728C734.145 282.489 734.145 286.965 731.382 289.726C728.619 292.486 724.139 292.486 721.376 289.726L644.662 213.08Z" fill="black"/>
<path d="M721.376 252.084C724.139 249.323 728.619 249.323 731.382 252.084C734.145 254.844 734.145 259.32 731.382 262.081L654.668 338.726C651.905 341.487 647.425 341.487 644.662 338.726C641.899 335.965 641.899 331.489 644.662 328.729L721.376 252.084Z" fill="black"/>
<path d="M644.662 262.081C641.899 259.32 641.899 254.844 644.662 252.084C647.425 249.323 651.905 249.323 654.668 252.084L731.382 328.729C734.145 331.489 734.145 335.965 731.382 338.726C728.619 341.487 724.139 341.487 721.376 338.726L644.662 262.081Z" fill="black"/>
<path d="M476.156 11.1652C478.919 8.40455 483.399 8.40455 486.162 11.1652C488.925 13.9259 488.925 18.4017 486.162 21.1624L409.448 97.8076C406.685 100.568 402.205 100.568 399.442 97.8076C396.679 95.0469 396.679 90.571 399.442 87.8104L476.156 11.1652Z" fill="black"/>
<path d="M399.442 21.1624C396.679 18.4017 396.679 13.9258 399.442 11.1652C402.205 8.40454 406.685 8.40454 409.448 11.1652L486.162 87.8104C488.925 90.571 488.925 95.0469 486.162 97.8076C483.398 100.568 478.919 100.568 476.155 97.8076L399.442 21.1624Z" fill="black"/>
<path d="M523.837 252.084C526.6 249.323 531.08 249.323 533.843 252.084C536.606 254.844 536.606 259.32 533.843 262.081L457.13 338.726C454.367 341.487 449.887 341.487 447.124 338.726C444.361 335.965 444.361 331.489 447.124 328.729L523.837 252.084Z" fill="black"/>
<path d="M447.124 262.081C444.361 259.32 444.361 254.844 447.124 252.084C449.887 249.323 454.367 249.323 457.13 252.084L533.843 328.729C536.606 331.489 536.606 335.965 533.843 338.726C531.08 341.487 526.6 341.487 523.837 338.726L447.124 262.081Z" fill="black"/>
<path d="M574.244 253.445C577.007 250.684 581.487 250.684 584.25 253.445C587.013 256.205 587.013 260.681 584.25 263.442L507.536 340.087C504.773 342.848 500.293 342.848 497.53 340.087C494.767 337.326 494.767 332.85 497.53 330.09L574.244 253.445Z" fill="black"/>
<path d="M497.53 263.442C494.767 260.681 494.767 256.205 497.53 253.445C500.293 250.684 504.773 250.684 507.536 253.445L584.25 330.09C587.013 332.85 587.013 337.326 584.25 340.087C581.487 342.848 577.007 342.848 574.244 340.087L497.53 263.442Z" fill="black"/>
<path d="M623.288 253.445C626.051 250.684 630.531 250.684 633.294 253.445C636.057 256.205 636.057 260.681 633.294 263.442L556.58 340.087C553.817 342.848 549.337 342.848 546.574 340.087C543.811 337.326 543.811 332.85 546.574 330.09L623.288 253.445Z" fill="black"/>
<path d="M546.574 263.442C543.811 260.681 543.811 256.205 546.574 253.445C549.337 250.684 553.817 250.684 556.58 253.445L633.294 330.09C636.057 332.851 636.057 337.326 633.294 340.087C630.531 342.848 626.051 342.848 623.288 340.087L546.574 263.442Z" fill="black"/>
<path d="M670.969 253.445C673.732 250.684 678.212 250.684 680.975 253.445C683.739 256.205 683.739 260.681 680.975 263.442L604.262 340.087C601.499 342.848 597.019 342.848 594.256 340.087C591.493 337.326 591.493 332.85 594.256 330.09L670.969 253.445Z" fill="black"/>
<path d="M594.256 263.442C591.493 260.681 591.493 256.205 594.256 253.445C597.019 250.684 601.499 250.684 604.262 253.445L680.975 330.09C683.738 332.85 683.738 337.326 680.975 340.087C678.212 342.848 673.732 342.848 670.969 340.087L594.256 263.442Z" fill="black"/>
<path d="M476.156 58.8044C478.919 56.0438 483.399 56.0438 486.162 58.8044C488.925 61.5651 488.925 66.041 486.162 68.8016L409.448 145.447C406.685 148.207 402.205 148.207 399.442 145.447C396.679 142.686 396.679 138.21 399.442 135.45L476.156 58.8044Z" fill="black"/>
<path d="M399.442 68.8016C396.679 66.041 396.679 61.5651 399.442 58.8044C402.205 56.0438 406.685 56.0438 409.448 58.8044L486.162 135.45C488.925 138.21 488.925 142.686 486.162 145.447C483.398 148.207 478.919 148.207 476.155 145.447L399.442 68.8016Z" fill="black"/>
<path d="M476.156 106.444C478.919 103.683 483.399 103.683 486.162 106.444C488.925 109.204 488.925 113.68 486.162 116.441L409.448 193.086C406.685 195.847 402.205 195.847 399.442 193.086C396.679 190.325 396.679 185.849 399.442 183.089L476.156 106.444Z" fill="black"/>
<path d="M399.442 116.441C396.679 113.68 396.679 109.204 399.442 106.444C402.205 103.683 406.685 103.683 409.448 106.444L486.162 183.089C488.925 185.849 488.925 190.325 486.162 193.086C483.398 195.847 478.919 195.847 476.155 193.086L399.442 116.441Z" fill="black"/>
<path d="M476.156 155.444C478.919 152.683 483.399 152.683 486.162 155.444C488.925 158.205 488.925 162.681 486.162 165.441L409.448 242.086C406.685 244.847 402.205 244.847 399.442 242.086C396.679 239.326 396.679 234.85 399.442 232.089L476.156 155.444Z" fill="black"/>
<path d="M399.442 165.441C396.679 162.681 396.679 158.205 399.442 155.444C402.205 152.683 406.685 152.683 409.448 155.444L486.162 232.089C488.925 234.85 488.925 239.326 486.162 242.086C483.398 244.847 478.919 244.847 476.155 242.086L399.442 165.441Z" fill="black"/>
<path d="M476.156 204.444C478.919 201.684 483.399 201.684 486.162 204.444C488.925 207.205 488.925 211.681 486.162 214.442L409.448 291.087C406.685 293.847 402.205 293.847 399.442 291.087C396.679 288.326 396.679 283.85 399.442 281.089L476.156 204.444Z" fill="black"/>
<path d="M399.442 214.442C396.679 211.681 396.679 207.205 399.442 204.444C402.205 201.684 406.685 201.684 409.448 204.444L486.162 281.089C488.925 283.85 488.925 288.326 486.162 291.087C483.398 293.847 478.919 293.847 476.155 291.087L399.442 214.442Z" fill="black"/>
<path d="M476.156 252.084C478.919 249.323 483.399 249.323 486.162 252.084C488.925 254.844 488.925 259.32 486.162 262.081L409.448 338.726C406.685 341.487 402.205 341.487 399.442 338.726C396.679 335.965 396.679 331.489 399.442 328.729L476.156 252.084Z" fill="black"/>
<path d="M399.442 262.081C396.679 259.32 396.679 254.844 399.442 252.084C402.205 249.323 406.685 249.323 409.448 252.084L486.162 328.729C488.925 331.489 488.925 335.965 486.162 338.726C483.398 341.487 478.919 341.487 476.155 338.726L399.442 262.081Z" fill="black"/>
<path d="M476.156 299.723C478.919 296.962 483.399 296.962 486.162 299.723C488.925 302.483 488.925 306.959 486.162 309.72L409.448 386.365C406.685 389.126 402.205 389.126 399.442 386.365C396.679 383.605 396.679 379.129 399.442 376.368L476.156 299.723Z" fill="black"/>
<path d="M399.442 309.72C396.679 306.959 396.679 302.483 399.442 299.723C402.205 296.962 406.685 296.962 409.448 299.723L486.162 376.368C488.925 379.129 488.925 383.604 486.162 386.365C483.398 389.126 478.919 389.126 476.155 386.365L399.442 309.72Z" fill="black"/>
<path d="M476.156 347.362C478.919 344.601 483.399 344.601 486.162 347.362C488.925 350.123 488.925 354.599 486.162 357.359L409.448 434.004C406.685 436.765 402.205 436.765 399.442 434.004C396.679 431.244 396.679 426.768 399.442 424.007L476.156 347.362Z" fill="black"/>
<path d="M399.442 357.359C396.679 354.599 396.679 350.123 399.442 347.362C402.205 344.601 406.685 344.601 409.448 347.362L486.162 424.007C488.925 426.768 488.925 431.244 486.162 434.004C483.398 436.765 478.919 436.765 476.155 434.004L399.442 357.359Z" fill="black"/>
<path d="M399.236 553.155C396.473 550.394 396.473 545.918 399.236 543.158C401.999 540.397 406.479 540.397 409.242 543.158L442.596 576.482L475.95 543.158C478.713 540.397 483.193 540.397 485.956 543.158C488.719 545.918 488.719 550.394 485.956 553.155L453.077 586.004H432.115L399.236 553.155Z" fill="black"/>
<path d="M945.532 551.794C942.769 549.033 942.769 544.557 945.532 541.796C948.295 539.036 952.775 539.036 955.538 541.796L988.892 575.12L1022.25 541.796C1025.01 539.036 1029.49 539.036 1032.25 541.796C1035.01 544.557 1035.01 549.033 1032.25 551.794L999.373 584.643H978.41L945.532 551.794Z" fill="black"/>
<path d="M1251.16 578.077C1248.4 580.838 1243.92 580.838 1241.16 578.077C1238.4 575.316 1238.4 570.84 1241.16 568.08L1274.51 534.756L1241.16 501.432C1238.4 498.671 1238.4 494.195 1241.16 491.435C1243.92 488.674 1248.4 488.674 1251.16 491.435L1284.04 524.284V545.228L1251.16 578.077Z" fill="black"/>
<path d="M494.807 358.725C492.043 355.963 492.043 351.486 494.807 348.725C497.571 345.963 502.052 345.963 504.816 348.725L730.292 574C733.056 576.761 733.056 581.239 730.292 584C727.528 586.761 723.047 586.761 720.283 584L494.807 358.725Z" fill="black"/>
<path d="M36.3561 11.5637C39.1192 8.80304 43.5991 8.80304 46.3622 11.5637C49.1253 14.3243 49.1253 18.8002 46.3622 21.5609L13.0091 54.8843C10.246 57.645 5.7661 57.645 3.00299 54.8843C0.239883 52.1237 0.239885 47.6478 3.00299 44.8871L36.3561 11.5637Z" fill="black"/>
<path d="M335.802 44.9398C338.561 47.7042 338.559 52.1842 335.797 54.9461C333.035 57.7081 328.559 57.706 325.8 54.9416L292.493 21.5723C289.734 18.8079 289.736 14.3279 292.497 11.566C295.259 8.80406 299.735 8.80612 302.494 11.5706L335.802 44.9398Z" fill="black"/>
<path d="M733.217 41.5137C735.977 44.2781 735.975 48.7581 733.213 51.5201C730.451 54.282 725.975 54.2799 723.216 51.5155L689.909 18.1463C687.149 15.3818 687.151 10.9018 689.913 8.13989C692.675 5.37798 697.151 5.38003 699.91 8.14447L733.217 41.5137Z" fill="black"/>
<path d="M1819.26 36.3746C1822.02 39.139 1822.02 43.619 1819.25 46.3809C1816.49 49.1428 1812.02 49.1408 1809.26 46.3763L1775.95 13.0071C1773.19 10.2427 1773.19 5.76267 1775.95 3.00076C1778.72 0.238844 1783.19 0.240896 1785.95 3.00534L1819.26 36.3746Z" fill="black"/>
<path d="M302.504 342.663C299.739 345.422 295.259 345.42 292.497 342.658C289.736 339.896 289.738 335.42 292.502 332.661L325.87 299.353C328.635 296.593 333.115 296.595 335.877 299.357C338.638 302.119 338.636 306.595 335.872 309.354L302.504 342.663Z" fill="black"/>
<path d="M698.206 340.95C695.442 343.709 690.962 343.707 688.2 340.945C685.438 338.183 685.44 333.707 688.205 330.948L721.573 297.64C724.337 294.88 728.817 294.882 731.579 297.644C734.341 300.406 734.339 304.882 731.575 307.641L698.206 340.95Z" fill="black"/>
<path d="M408.71 53.1583C405.945 55.9177 401.465 55.9156 398.703 53.1537C395.942 50.3918 395.944 45.9159 398.708 43.1565L432.076 9.84835C434.841 7.08897 439.321 7.09102 442.082 9.85293C444.844 12.6148 444.842 17.0907 442.078 19.8501L408.71 53.1583Z" fill="black"/>
<path d="M1498.18 48.0191C1495.41 50.7785 1490.93 50.7765 1488.17 48.0146C1485.41 45.2526 1485.41 40.7768 1488.18 38.0174L1521.54 4.70922C1524.31 1.94983 1528.79 1.95188 1531.55 4.7138C1534.31 7.47571 1534.31 11.9516 1531.54 14.711L1498.18 48.0191Z" fill="black"/>
<path d="M1787.01 335.306C1784.24 338.066 1779.76 338.063 1777 335.302C1774.24 332.54 1774.24 328.064 1777.01 325.304L1810.37 291.996C1813.14 289.237 1817.62 289.239 1820.38 292.001C1823.14 294.763 1823.14 299.239 1820.38 301.998L1787.01 335.306Z" fill="black"/>
<path d="M1975.61 275.702C1973.12 278.714 1973.55 283.171 1976.56 285.657C1979.57 288.143 1984.03 287.716 1986.52 284.705L2210.59 13.5212C2213.08 10.5094 2212.66 6.05259 2209.64 3.56669C2206.63 1.08078 2202.17 1.50713 2199.68 4.51897L1975.61 275.702Z" fill="black"/>
<path d="M2210.59 567.546C2213.08 570.558 2212.66 575.015 2209.64 577.501C2206.63 579.987 2202.17 579.561 2199.68 576.549L1976.01 305.846C1973.52 302.834 1973.94 298.377 1976.96 295.891C1979.97 293.405 1984.43 293.832 1986.92 296.844L2210.59 567.546Z" fill="black"/>
<path d="M1881.44 750.976C1879.15 750.976 1878 749.828 1878 747.532V650.608C1878 648.312 1879.15 647.164 1881.44 647.164H1920.97C1934.36 647.164 1944.06 650.198 1950.08 656.266C1956.15 662.279 1959.18 671.983 1959.18 685.376V712.764C1959.18 726.103 1956.15 735.806 1950.08 741.874C1944.06 747.942 1934.36 750.976 1920.97 750.976H1881.44ZM1884.89 744.088H1920.97C1928.57 744.088 1934.66 743.077 1939.25 741.054C1943.85 738.977 1947.15 735.642 1949.18 731.05C1951.25 726.458 1952.29 720.363 1952.29 712.764V685.376C1952.29 677.777 1951.25 671.682 1949.18 667.09C1947.15 662.498 1943.85 659.191 1939.25 657.168C1934.66 655.091 1928.57 654.052 1920.97 654.052H1884.89V744.088Z" fill="black"/>
<path d="M2029.87 750.976C2027.57 750.976 2026.43 749.828 2026.43 747.532V650.608C2026.43 648.312 2027.57 647.164 2029.87 647.164H2092.19C2094.49 647.164 2095.63 648.312 2095.63 650.608C2095.63 652.904 2094.49 654.052 2092.19 654.052H2033.31V694.888H2072.84C2075.13 694.888 2076.28 696.036 2076.28 698.332C2076.28 700.628 2075.13 701.776 2072.84 701.776H2033.31V744.088H2092.19C2094.49 744.088 2095.63 745.236 2095.63 747.532C2095.63 749.828 2094.49 750.976 2092.19 750.976H2029.87Z" fill="black"/>
<path d="M2182.37 750.812C2172.48 750.812 2165.23 748.543 2160.64 744.006C2156.1 739.469 2153.83 732.28 2153.83 722.44C2153.83 721.456 2154.16 720.636 2154.82 719.98C2155.47 719.324 2156.29 718.996 2157.28 718.996C2158.26 718.996 2159.08 719.324 2159.74 719.98C2160.39 720.636 2160.72 721.456 2160.72 722.44C2160.72 730.367 2162.31 735.943 2165.48 739.168C2168.7 742.339 2174.33 743.924 2182.37 743.924H2205.99C2214.02 743.924 2219.63 742.339 2222.8 739.168C2226.02 735.943 2227.63 730.367 2227.63 722.44C2227.63 714.459 2226.02 708.883 2222.8 705.712C2219.63 702.541 2214.02 700.956 2205.99 700.956H2182.86C2173.46 700.956 2166.6 698.824 2162.28 694.56C2157.96 690.241 2155.8 683.408 2155.8 674.06C2155.8 664.712 2157.93 657.906 2162.2 653.642C2166.52 649.323 2173.35 647.164 2182.7 647.164H2206.81C2216.15 647.164 2222.96 649.296 2227.22 653.56C2231.54 657.824 2233.7 664.603 2233.7 673.896C2233.7 674.88 2233.37 675.7 2232.72 676.356C2232.06 677.012 2231.24 677.34 2230.26 677.34C2229.27 677.34 2228.45 677.012 2227.8 676.356C2227.14 675.7 2226.81 674.88 2226.81 673.896C2226.81 666.571 2225.31 661.432 2222.3 658.48C2219.35 655.528 2214.19 654.052 2206.81 654.052H2182.7C2175.32 654.052 2170.12 655.555 2167.12 658.562C2164.17 661.514 2162.69 666.68 2162.69 674.06C2162.69 681.44 2164.19 686.633 2167.2 689.64C2170.21 692.592 2175.43 694.068 2182.86 694.068H2205.99C2215.94 694.068 2223.18 696.337 2227.72 700.874C2232.25 705.411 2234.52 712.6 2234.52 722.44C2234.52 732.28 2232.25 739.469 2227.72 744.006C2223.18 748.543 2215.94 750.812 2205.99 750.812H2182.37Z" fill="black"/>
<path d="M2305.26 750.976C2304.28 750.976 2303.46 750.648 2302.8 749.992C2302.15 749.336 2301.82 748.516 2301.82 747.532V650.444C2301.82 649.46 2302.15 648.64 2302.8 647.984C2303.46 647.328 2304.28 647 2305.26 647C2306.25 647 2307.07 647.328 2307.72 647.984C2308.38 648.64 2308.71 649.46 2308.71 650.444V747.532C2308.71 748.516 2308.38 749.336 2307.72 749.992C2307.07 750.648 2306.25 750.976 2305.26 750.976Z" fill="black"/>
<path d="M2409.19 750.976C2397.54 750.976 2389.07 748.352 2383.77 743.104C2378.52 737.801 2375.89 729.328 2375.89 717.684V680.456C2375.89 668.703 2378.52 660.229 2383.77 655.036C2389.07 649.788 2397.49 647.164 2409.02 647.164H2428.87C2438.87 647.164 2446.25 649.241 2451.01 653.396C2455.76 657.551 2458.33 664.275 2458.71 673.568C2458.82 674.716 2458.58 675.618 2457.98 676.274C2457.43 676.875 2456.58 677.176 2455.43 677.176C2453.19 677.176 2451.99 676.028 2451.83 673.732C2451.5 666.352 2449.58 661.241 2446.09 658.398C2442.64 655.501 2436.9 654.052 2428.87 654.052H2409.02C2402.57 654.052 2397.43 654.899 2393.61 656.594C2389.78 658.289 2387.02 661.077 2385.32 664.958C2383.63 668.785 2382.78 673.951 2382.78 680.456V717.684C2382.78 724.135 2383.63 729.301 2385.32 733.182C2387.07 737.009 2389.86 739.797 2393.69 741.546C2397.57 743.241 2402.74 744.088 2409.19 744.088H2428.87C2434.66 744.088 2439.23 743.377 2442.56 741.956C2445.95 740.48 2448.35 738.075 2449.78 734.74C2451.25 731.351 2451.99 726.759 2451.99 720.964V709.812L2432.31 709.648C2430.01 709.648 2428.87 708.5 2428.87 706.204C2428.87 703.908 2430.01 702.76 2432.31 702.76L2455.43 702.924C2457.73 702.924 2458.88 704.072 2458.88 706.368V720.964C2458.88 731.515 2456.53 739.168 2451.83 743.924C2447.12 748.625 2439.47 750.976 2428.87 750.976H2409.19Z" fill="black"/>
<path d="M2527.96 750.976C2525.67 750.976 2524.52 749.828 2524.52 747.532V650.608C2524.52 648.312 2525.67 647.164 2527.96 647.164C2529.22 647.164 2530.42 647.82 2531.57 649.132L2602.25 739.824H2600.78V650.608C2600.78 648.312 2601.93 647.164 2604.22 647.164C2606.52 647.164 2607.67 648.312 2607.67 650.608V747.532C2607.67 749.828 2606.52 750.976 2604.22 750.976C2602.97 750.976 2601.76 750.32 2600.61 749.008L2529.93 658.316H2531.41V747.532C2531.41 749.828 2530.26 750.976 2527.96 750.976Z" fill="black"/>
</svg>
